<svg width="64" height="64" viewBox="0 0 64 64" fill="none" xmlns="http://www.w3.org/2000/svg">
<path d="M0 30C0 13.4315 13.4315 0 30 0C46.5685 0 60 13.4315 60 30C60 46.5685 46.5685 60 30 60C13.4315 60 0 46.5685 0 30Z" fill="#F1F7F0"/>
<g filter="url(#filter0_d_4550_527)">
<path d="M34.7656 5.25879L36.4433 3.40527L36.443 3.40504L34.7656 5.25879ZM35.1797 6.80078L32.6921 7.04922L32.6921 7.04949L35.1797 6.80078ZM35.6699 11.7041L38.1575 11.4557L38.1575 11.4554L35.6699 11.7041ZM36.4668 14.3838L35.5094 16.6932L35.5098 16.6934L36.4668 14.3838ZM38.9258 13.0537L40.5086 14.9888L40.5087 14.9888L38.9258 13.0537ZM42.7412 9.93262L41.1583 7.99754L41.1583 7.99757L42.7412 9.93262ZM44.124 9.13574L44.2486 6.63885L44.248 6.63882L44.124 9.13574ZM45.4209 10.0664L43.6533 11.8343L43.6533 11.8344L45.4209 10.0664ZM49.9326 14.5771L51.7003 12.8093L51.7002 12.8092L49.9326 14.5771ZM50.8643 15.875L53.3612 15.751L53.3611 15.7504L50.8643 15.875ZM50.0664 17.2588L48.1315 15.6757L48.1315 15.6757L50.0664 17.2588ZM46.9463 21.0723L48.8812 22.6554L48.8812 22.6554L46.9463 21.0723ZM45.6152 23.5312L43.3055 24.4878L43.3055 24.4879L45.6152 23.5312ZM48.2949 24.3291L48.5441 21.8415L48.5438 21.8415L48.2949 24.3291ZM53.1992 24.8203L52.9501 27.3079L52.9503 27.3079L53.1992 24.8203ZM54.7412 25.2344L56.5952 23.5572L56.5949 23.5569L54.7412 25.2344ZM55 26.8096H57.5H55ZM55 33.1904H57.5H55ZM54.7412 34.7656L56.5948 36.4432L56.5951 36.4429L54.7412 34.7656ZM53.1992 35.1797L52.9506 32.6921L52.9505 32.6921L53.1992 35.1797ZM48.2959 35.6699L48.5446 38.1575L48.5446 38.1575L48.2959 35.6699ZM45.6162 36.4678L43.3066 35.511L43.3065 35.511L45.6162 36.4678ZM46.9473 38.9268L48.8824 37.344L48.8822 37.3437L46.9473 38.9268ZM50.0664 42.7402L48.1313 44.323L48.1315 44.3233L50.0664 42.7402ZM50.8643 44.123L53.3612 44.2475L53.3612 44.2468L50.8643 44.123ZM49.9336 45.4209L51.7012 47.1889L51.7015 47.1885L49.9336 45.4209ZM45.4219 49.9316L43.6543 48.1637L43.654 48.164L45.4219 49.9316ZM44.125 50.8633L44.2491 53.3602L44.2497 53.3602L44.125 50.8633ZM42.7412 50.0654L41.1581 52.0003L41.1582 52.0004L42.7412 50.0654ZM38.9268 46.9443L40.5099 45.0095L40.5098 45.0094L38.9268 46.9443ZM36.4678 45.6143L35.5109 43.3046L35.5108 43.3047L36.4678 45.6143ZM35.6699 48.2939L33.1823 48.0453L33.1823 48.0453L35.6699 48.2939ZM35.1797 53.1992L37.6673 53.4478V53.4478L35.1797 53.1992ZM34.7656 54.7412L36.4429 56.5951L36.4432 56.5948L34.7656 54.7412ZM26.8096 55V57.5V55ZM25.2344 54.7412L23.557 56.595L23.5574 56.5953L25.2344 54.7412ZM24.8193 53.1992L27.3069 52.9501L27.3069 52.9501L24.8193 53.1992ZM24.3281 48.2949L21.8406 48.544L21.8406 48.5441L24.3281 48.2949ZM23.5303 45.6152L24.4867 43.3054L24.4864 43.3053L23.5303 45.6152ZM21.0723 46.9463L22.6551 48.8814L22.6555 48.8811L21.0723 46.9463ZM17.2578 50.0664L15.675 48.1313L15.6746 48.1316L17.2578 50.0664ZM15.875 50.8643L15.7506 53.3612L15.7512 53.3612L15.875 50.8643ZM14.5771 49.9326L12.8094 51.7004L14.5771 49.9326ZM10.0664 45.4219L8.29864 47.1896L10.0664 45.4219ZM9.13574 44.125L6.63883 44.2491L6.63885 44.2497L9.13574 44.125ZM9.93262 42.7422L7.99757 41.1593L7.99754 41.1593L9.93262 42.7422ZM13.0537 38.9268L14.9888 40.5097L14.9888 40.5096L13.0537 38.9268ZM14.3838 36.4678L16.6934 35.5109L16.6933 35.5106L14.3838 36.4678ZM11.7041 35.6699L11.4554 38.1575L11.4554 38.1575L11.7041 35.6699ZM6.80078 35.1797L7.04949 32.6921L7.04945 32.6921L6.80078 35.1797ZM5.25879 34.7656L3.40492 36.4429L3.40519 36.4432L5.25879 34.7656ZM5 33.1904H2.5H5ZM5 26.8096H2.5H5ZM5.25879 25.2344L3.40512 23.5569L3.40482 23.5572L5.25879 25.2344ZM6.80078 24.8203L7.04966 27.3079L7.04988 27.3079L6.80078 24.8203ZM11.7061 24.3291L11.4572 21.8415L11.457 21.8415L11.7061 24.3291ZM14.3848 23.5312L16.6945 24.488L16.6945 24.4879L14.3848 23.5312ZM13.0547 21.0723L11.1196 22.6552L11.1197 22.6553L13.0547 21.0723ZM9.93359 17.2568L11.8686 15.6739L11.8686 15.6738L9.93359 17.2568ZM9.13574 15.874L6.63885 15.7494L6.63882 15.75L9.13574 15.874ZM10.0674 14.5762L8.29962 12.8084L10.0674 14.5762ZM14.5781 10.0654L12.8104 8.29766V8.29766L14.5781 10.0654ZM15.875 9.13477L15.751 6.63784L15.7504 6.63787L15.875 9.13477ZM17.2578 9.93164L18.841 7.99679L18.8408 7.99665L17.2578 9.93164ZM21.0723 13.0527L19.4891 14.9876L19.4893 14.9877L21.0723 13.0527ZM23.5312 14.3828L24.4879 16.6925L24.488 16.6925L23.5312 14.3828ZM24.3291 11.7041L26.8167 11.953L26.8167 11.9528L24.3291 11.7041ZM24.8193 6.80078L22.3318 6.55186L22.3317 6.55207L24.8193 6.80078ZM25.2344 5.25879L23.5573 3.4048L23.5569 3.4051L25.2344 5.25879ZM26.8096 5V2.5V5ZM33.1895 5V7.5C33.4133 7.5 33.5683 7.50017 33.6972 7.50333C33.7582 7.50483 33.802 7.50677 33.8334 7.50875C33.8649 7.51074 33.8762 7.5123 33.8729 7.51187C33.8715 7.51169 33.7685 7.49926 33.6171 7.44062C33.5383 7.4101 33.4487 7.36803 33.3543 7.31077C33.2593 7.25313 33.1699 7.18642 33.0882 7.11254L34.7656 5.25879L36.443 3.40504C35.7765 2.8019 35.0315 2.61996 34.5131 2.55303C34.0653 2.49521 33.5532 2.5 33.1895 2.5V5ZM34.7656 5.25879L33.088 7.11231C33.0064 7.03848 32.9312 6.95619 32.8643 6.8674C32.798 6.7792 32.7472 6.6942 32.7089 6.61875C32.6354 6.47377 32.6128 6.37236 32.6124 6.37089C32.6116 6.36751 32.6143 6.37859 32.6194 6.4097C32.6245 6.44069 32.6308 6.484 32.6383 6.54452C32.6543 6.6724 32.6698 6.82654 32.6921 7.04922L35.1797 6.80078L37.6673 6.55235C37.6312 6.19066 37.5851 5.68062 37.483 5.2408C37.3648 4.73138 37.1096 4.0084 36.4433 3.40527L34.7656 5.25879ZM35.1797 6.80078L32.6921 7.04949L33.1823 11.9528L35.6699 11.7041L38.1575 11.4554L37.6673 6.55207L35.1797 6.80078ZM35.6699 11.7041L33.1823 11.9525C33.2554 12.6844 33.3321 13.5203 33.4975 14.1793C33.6638 14.8416 34.1068 16.1117 35.5094 16.6932L36.4668 14.3838L37.4242 12.0744C37.5941 12.1448 37.7588 12.2443 37.9066 12.3709C38.052 12.4954 38.1549 12.6236 38.2243 12.7297C38.3498 12.9216 38.368 13.0453 38.347 12.9618C38.3285 12.888 38.3006 12.7414 38.2658 12.4661C38.2316 12.1956 38.1993 11.8741 38.1575 11.4557L35.6699 11.7041ZM36.4668 14.3838L35.5098 16.6934C36.9119 17.2744 38.1233 16.6908 38.7098 16.3402C39.2934 15.9914 39.939 15.4547 40.5086 14.9888L38.9258 13.0537L37.3429 11.1186C37.0176 11.3848 36.7674 11.5891 36.5521 11.756C36.3329 11.9258 36.2095 12.0096 36.1444 12.0485C36.0706 12.0927 36.171 12.0181 36.3954 11.9713C36.5195 11.9455 36.6827 11.9277 36.8735 11.9426C37.0674 11.9577 37.254 12.0039 37.4238 12.0742L36.4668 14.3838ZM38.9258 13.0537L40.5087 14.9888L44.3241 11.8677L42.7412 9.93262L41.1583 7.99757L37.3429 11.1187L38.9258 13.0537ZM42.7412 9.93262L44.3241 11.8677C44.4971 11.7261 44.6171 11.6282 44.7187 11.5492C44.7668 11.5118 44.8018 11.4857 44.8273 11.4674C44.8529 11.449 44.8626 11.4431 44.8596 11.4449C44.8583 11.4458 44.7706 11.5014 44.6163 11.5518C44.536 11.5781 44.4401 11.6022 44.3309 11.6176C44.221 11.6331 44.1098 11.6381 44 11.6327L44.124 9.13574L44.248 6.63882C43.3512 6.59428 42.66 6.92443 42.2162 7.20088C41.8329 7.43957 41.4398 7.76733 41.1583 7.99754L42.7412 9.93262ZM44.124 9.13574L43.9994 11.6326C43.8896 11.6272 43.7794 11.6112 43.6716 11.5848C43.5644 11.5586 43.4713 11.525 43.394 11.4909C43.2454 11.4253 43.1636 11.3612 43.1624 11.3603C43.1596 11.3582 43.1687 11.365 43.1923 11.3858C43.2158 11.4065 43.2481 11.4361 43.2922 11.4781C43.3855 11.5668 43.4951 11.6762 43.6533 11.8343L45.4209 10.0664L47.1885 8.29852C46.9314 8.0414 46.5727 7.67605 46.2151 7.40034C45.8009 7.08103 45.1457 6.68361 44.2486 6.63885L44.124 9.13574ZM45.4209 10.0664L43.6533 11.8344L48.165 16.3451L49.9326 14.5771L51.7002 12.8092L47.1885 8.29845L45.4209 10.0664ZM49.9326 14.5771L48.165 16.345C48.3232 16.5032 48.4326 16.6129 48.5215 16.7062C48.5635 16.7504 48.5931 16.7827 48.6139 16.8063C48.6347 16.83 48.6417 16.8391 48.6396 16.8364C48.6388 16.8354 48.5748 16.7538 48.5092 16.6053C48.4751 16.5281 48.4415 16.435 48.4153 16.3278C48.3889 16.22 48.3729 16.1096 48.3674 15.9996L50.8643 15.875L53.3611 15.7504C53.3164 14.8527 52.9184 14.1972 52.5991 13.7833C52.3232 13.4255 51.9577 13.0667 51.7003 12.8093L49.9326 14.5771ZM50.8643 15.875L48.3673 15.999C48.3619 15.889 48.3669 15.7776 48.3824 15.6676C48.3979 15.5583 48.4221 15.4624 48.4483 15.3821C48.4988 15.2279 48.5544 15.1404 48.5551 15.1393C48.5568 15.1364 48.5509 15.1462 48.5324 15.1719C48.5141 15.1974 48.4879 15.2325 48.4504 15.2807C48.3712 15.3824 48.2732 15.5025 48.1315 15.6757L50.0664 17.2588L52.0013 18.8419C52.2317 18.5604 52.5596 18.1671 52.7984 17.7838C53.0748 17.3404 53.4058 16.6487 53.3612 15.751L50.8643 15.875ZM50.0664 17.2588L48.1315 15.6757L45.0114 19.4892L46.9463 21.0723L48.8812 22.6554L52.0013 18.8419L50.0664 17.2588ZM46.9463 21.0723L45.0114 19.4891C44.5455 20.0586 44.0087 20.704 43.6597 21.2874C43.3092 21.8732 42.7245 23.0849 43.3055 24.4878L45.6152 23.5312L47.925 22.5747C47.9954 22.7447 48.0415 22.9315 48.0566 23.1255C48.0714 23.3164 48.0535 23.4798 48.0276 23.6038C47.9807 23.8281 47.9062 23.9284 47.9504 23.8544C47.9895 23.7892 48.0734 23.6657 48.2434 23.4464C48.4104 23.231 48.6149 22.9808 48.8812 22.6554L46.9463 21.0723ZM45.6152 23.5312L43.3055 24.4879C43.8864 25.8905 45.1562 26.3341 45.8186 26.5007C46.4779 26.6665 47.3139 26.7434 48.046 26.8167L48.2949 24.3291L48.5438 21.8415C48.1255 21.7997 47.804 21.7673 47.5336 21.7331C47.2584 21.6982 47.1118 21.6702 47.0381 21.6517C46.9546 21.6307 47.0783 21.6489 47.2701 21.7745C47.3762 21.8439 47.5042 21.9468 47.6287 22.0922C47.7552 22.2401 47.8546 22.4047 47.925 22.5746L45.6152 23.5312ZM48.2949 24.3291L48.0458 26.8167L52.9501 27.3079L53.1992 24.8203L53.4484 22.3328L48.5441 21.8415L48.2949 24.3291ZM53.1992 24.8203L52.9503 27.3079C53.1732 27.3302 53.3274 27.3458 53.4554 27.3617C53.516 27.3693 53.5594 27.3756 53.5904 27.3807C53.6216 27.3858 53.6327 27.3885 53.6293 27.3877C53.6279 27.3874 53.5265 27.3647 53.3814 27.2912C53.3059 27.2529 53.2209 27.2021 53.1326 27.1357C53.0438 27.0688 52.9614 26.9935 52.8875 26.9118L54.7412 25.2344L56.5949 23.5569C55.9916 22.8902 55.2683 22.6351 54.759 22.517C54.3195 22.415 53.8094 22.3689 53.4481 22.3327L53.1992 24.8203ZM54.7412 25.2344L52.8872 26.9115C52.8135 26.83 52.7469 26.7407 52.6893 26.6459C52.6321 26.5516 52.59 26.462 52.5595 26.3832C52.5008 26.2318 52.4883 26.1287 52.4881 26.1272C52.4877 26.1237 52.4893 26.135 52.4912 26.1664C52.4932 26.1977 52.4952 26.2414 52.4967 26.3023C52.4998 26.431 52.5 26.5859 52.5 26.8096H55H57.5C57.5 26.4459 57.5048 25.934 57.4469 25.4861C57.3798 24.9675 57.1977 24.2233 56.5952 23.5572L54.7412 25.2344ZM55 26.8096H52.5V33.1904H55H57.5V26.8096H55ZM55 33.1904H52.5C52.5 33.4141 52.4998 33.569 52.4967 33.6977C52.4952 33.7586 52.4932 33.8023 52.4912 33.8336C52.4893 33.8651 52.4877 33.8763 52.4881 33.8729C52.4883 33.8713 52.5008 33.7682 52.5595 33.6168C52.59 33.5379 52.6321 33.4484 52.6894 33.3541C52.747 33.2592 52.8136 33.1699 52.8873 33.0884L54.7412 34.7656L56.5951 36.4429C57.1977 35.7768 57.3799 35.0325 57.4469 34.5138C57.5048 34.066 57.5 33.554 57.5 33.1904H55ZM54.7412 34.7656L52.8876 33.0881C52.9615 33.0065 53.0438 32.9312 53.1326 32.8643C53.2208 32.7979 53.3059 32.7471 53.3814 32.7089C53.5264 32.6354 53.6278 32.6127 53.6292 32.6124C53.6326 32.6116 53.6215 32.6143 53.5904 32.6194C53.5593 32.6245 53.516 32.6307 53.4555 32.6383C53.3275 32.6542 53.1733 32.6698 52.9506 32.6921L53.1992 35.1797L53.4479 37.6673C53.8094 37.6312 54.3194 37.585 54.7591 37.483C55.2684 37.3649 55.9916 37.1097 56.5948 36.4432L54.7412 34.7656ZM53.1992 35.1797L52.9505 32.6921L48.0472 33.1823L48.2959 35.6699L48.5446 38.1575L53.4479 37.6673L53.1992 35.1797ZM48.2959 35.6699L48.0472 33.1823C47.3149 33.2555 46.4789 33.3324 45.8195 33.4983C45.1568 33.665 43.8875 34.1087 43.3066 35.511L45.6162 36.4678L47.9259 37.4246C47.8555 37.5944 47.7561 37.759 47.6297 37.9067C47.5053 38.0521 47.3773 38.155 47.2712 38.2244C47.0795 38.35 46.9558 38.3682 47.0392 38.3473C47.1128 38.3287 47.2594 38.3008 47.5345 38.2659C47.8048 38.2317 48.1263 38.1993 48.5446 38.1575L48.2959 35.6699ZM45.6162 36.4678L43.3065 35.511C42.7254 36.914 43.3101 38.1257 43.6607 38.7117C44.0097 39.2949 44.5465 39.9404 45.0124 40.5099L46.9473 38.9268L48.8822 37.3437C48.6159 37.0182 48.4114 36.768 48.2443 36.5525C48.0743 36.3332 47.9904 36.2098 47.9513 36.1445C47.9071 36.0706 47.9817 36.1709 48.0286 36.3953C48.0545 36.5194 48.0723 36.6828 48.0575 36.8737C48.0424 37.0678 47.9963 37.2546 47.9259 37.4245L45.6162 36.4678ZM46.9473 38.9268L45.0121 40.5096L48.1313 44.323L50.0664 42.7402L52.0015 41.1574L48.8824 37.344L46.9473 38.9268ZM50.0664 42.7402L48.1315 44.3233C48.2734 44.4968 48.3715 44.6168 48.4508 44.7188C48.4884 44.767 48.5146 44.8021 48.533 44.8277C48.5515 44.8534 48.5575 44.8632 48.5557 44.8603C48.555 44.8592 48.4992 44.7715 48.4486 44.617C48.4222 44.5365 48.398 44.4404 48.3825 44.331C48.3669 44.2208 48.3619 44.1093 48.3673 43.9993L50.8643 44.123L53.3612 44.2468C53.4057 43.3486 53.0743 42.6568 52.7977 42.2136C52.5591 41.8311 52.231 41.4379 52.0013 41.1571L50.0664 42.7402ZM50.8643 44.123L48.3674 43.9986C48.3728 43.889 48.3888 43.779 48.4151 43.6714C48.4412 43.5644 48.4746 43.4715 48.5086 43.3943C48.574 43.2459 48.6379 43.1643 48.6389 43.163C48.6411 43.1602 48.6343 43.1692 48.6135 43.1928C48.5928 43.2163 48.5634 43.2485 48.5215 43.2926C48.4329 43.3857 48.3236 43.4953 48.1657 43.6533L49.9336 45.4209L51.7015 47.1885C51.9594 46.9306 52.3247 46.5718 52.6007 46.2134C52.92 45.7986 53.3165 45.1437 53.3612 44.2475L50.8643 44.123ZM49.9336 45.4209L48.166 43.6529L43.6543 48.1637L45.4219 49.9316L47.1894 51.6996L51.7012 47.1889L49.9336 45.4209ZM45.4219 49.9316L43.654 48.164C43.4955 48.3225 43.3858 48.432 43.2923 48.5211C43.2481 48.5632 43.2157 48.5928 43.1921 48.6137C43.1684 48.6346 43.1593 48.6415 43.1619 48.6395C43.163 48.6386 43.2448 48.5744 43.3936 48.5086C43.471 48.4744 43.5643 48.4407 43.6716 48.4144C43.7797 48.388 43.8903 48.3719 44.0003 48.3664L44.125 50.8633L44.2497 53.3602C45.1482 53.3153 45.8038 52.9166 46.2174 52.5972C46.5745 52.3216 46.9331 51.9559 47.1898 51.6993L45.4219 49.9316ZM44.125 50.8633L44.0009 48.3664C44.1109 48.3609 44.2224 48.3659 44.3325 48.3815C44.4417 48.3969 44.5377 48.4211 44.618 48.4474C44.7722 48.4979 44.8597 48.5534 44.8608 48.5541C44.8637 48.5559 44.8538 48.5499 44.8282 48.5315C44.8026 48.5131 44.7675 48.4869 44.7193 48.4494C44.6175 48.3702 44.4974 48.2722 44.3242 48.1305L42.7412 50.0654L41.1582 52.0004C41.4397 52.2307 41.833 52.5586 42.2161 52.7974C42.6594 53.0737 43.3512 53.4048 44.2491 53.3602L44.125 50.8633ZM42.7412 50.0654L44.3244 48.1306L40.5099 45.0095L38.9268 46.9443L37.3436 48.8792L41.1581 52.0003L42.7412 50.0654ZM38.9268 46.9443L40.5098 45.0094C39.94 44.5433 39.2945 44.0067 38.7107 43.6577C38.1241 43.3071 36.9129 42.7238 35.5109 43.3046L36.4678 45.6143L37.4246 47.9239C37.2549 47.9942 37.0683 48.0403 36.8745 48.0555C36.6837 48.0703 36.5205 48.0526 36.3965 48.0267C36.1721 47.98 36.0717 47.9054 36.1455 47.9495C36.2106 47.9884 36.3339 48.0722 36.553 48.242C36.7684 48.4088 37.0185 48.6132 37.3438 48.8793L38.9268 46.9443ZM36.4678 45.6143L35.5108 43.3047C34.1087 43.8856 33.665 45.1549 33.4983 45.8175C33.3324 46.477 33.2555 47.3129 33.1823 48.0453L35.6699 48.2939L38.1575 48.5426C38.1993 48.1243 38.2316 47.8029 38.2659 47.5326C38.3008 47.2575 38.3287 47.111 38.3472 47.0373C38.3682 46.9539 38.35 47.0775 38.2245 47.2693C38.1551 47.3753 38.0522 47.5033 37.9069 47.6277C37.7591 47.7541 37.5945 47.8535 37.4248 47.9238L36.4678 45.6143ZM35.6699 48.2939L33.1823 48.0453L32.6921 52.9506L35.1797 53.1992L37.6673 53.4478L38.1575 48.5426L35.6699 48.2939ZM35.1797 53.1992L32.6921 52.9506C32.6698 53.1733 32.6542 53.3275 32.6383 53.4555C32.6307 53.516 32.6245 53.5593 32.6194 53.5904C32.6143 53.6215 32.6116 53.6326 32.6124 53.6292C32.6127 53.6278 32.6354 53.5263 32.7089 53.3813C32.7471 53.3059 32.7979 53.2208 32.8643 53.1326C32.9312 53.0438 33.0065 52.9615 33.0881 52.8876L34.7656 54.7412L36.4432 56.5948C37.1097 55.9916 37.3649 55.2685 37.483 54.7591C37.585 54.3194 37.6312 53.8094 37.6673 53.4478L35.1797 53.1992ZM34.7656 54.7412L33.0883 52.8874C33.17 52.8135 33.2594 52.7468 33.3544 52.6892C33.4488 52.6319 33.5383 52.5898 33.6171 52.5593C33.7685 52.5007 33.8715 52.4883 33.8728 52.4881C33.8762 52.4877 33.8648 52.4893 33.8333 52.4912C33.8019 52.4932 33.7581 52.4952 33.6971 52.4967C33.5682 52.4998 33.4132 52.5 33.1895 52.5V55V57.5C33.5532 57.5 34.0653 57.5048 34.5131 57.447C35.0314 57.38 35.7764 57.1981 36.4429 56.5951L34.7656 54.7412ZM33.1895 55V52.5H26.8096V55V57.5H33.1895V55ZM26.8096 55V52.5C26.5859 52.5 26.431 52.4998 26.3023 52.4967C26.2414 52.4952 26.1977 52.4932 26.1664 52.4912C26.135 52.4892 26.1237 52.4877 26.1272 52.4881C26.1287 52.4883 26.2318 52.5008 26.3832 52.5595C26.462 52.59 26.5515 52.6321 26.6458 52.6893C26.7407 52.7468 26.8299 52.8134 26.9114 52.8871L25.2344 54.7412L23.5574 56.5953C24.2233 57.1977 24.9674 57.3798 25.4861 57.4469C25.9339 57.5048 26.4459 57.5 26.8096 57.5V55ZM25.2344 54.7412L26.9118 52.8875C26.9932 52.9611 27.0683 53.0432 27.1349 53.1317C27.2012 53.2197 27.2519 53.3045 27.2902 53.3797C27.3636 53.5244 27.3863 53.6256 27.3867 53.6272C27.3875 53.6306 27.3848 53.6196 27.3797 53.5886C27.3746 53.5577 27.3683 53.5144 27.3608 53.454C27.3448 53.3265 27.3292 53.1724 27.3069 52.9501L24.8193 53.1992L22.3318 53.4483C22.3681 53.811 22.4145 54.3209 22.517 54.7612C22.6357 55.2709 22.8915 55.9927 23.557 56.595L25.2344 54.7412ZM24.8193 53.1992L27.3069 52.9501L26.8157 48.0458L24.3281 48.2949L21.8406 48.5441L22.3318 53.4484L24.8193 53.1992ZM24.3281 48.2949L26.8157 48.0458C26.7424 47.3139 26.6654 46.4779 26.4997 45.8188C26.3332 45.1566 25.8897 43.8864 24.4867 43.3054L23.5303 45.6152L22.5738 47.925C22.4039 47.8547 22.2391 47.7552 22.0912 47.6287C21.9457 47.5042 21.8428 47.376 21.7734 47.27C21.6478 47.0781 21.6296 46.9545 21.6506 47.038C21.6692 47.1118 21.6972 47.2584 21.732 47.5337C21.7663 47.8042 21.7987 48.1256 21.8406 48.544L24.3281 48.2949ZM23.5303 45.6152L24.4864 43.3053C23.0835 42.7246 21.8722 43.3094 21.2863 43.6601C20.7034 44.009 20.0581 44.5458 19.489 45.0115L21.0723 46.9463L22.6555 48.8811C22.981 48.6147 23.231 48.4103 23.4465 48.2432C23.6658 48.0732 23.7891 47.9893 23.8544 47.9502C23.9282 47.906 23.8278 47.9806 23.6033 48.0276C23.4792 48.0535 23.3158 48.0714 23.1249 48.0566C22.9308 48.0416 22.744 47.9955 22.5742 47.9252L23.5303 45.6152ZM21.0723 46.9463L19.4894 45.0112L15.675 48.1313L17.2578 50.0664L18.8407 52.0015L22.6551 48.8814L21.0723 46.9463ZM17.2578 50.0664L15.6746 48.1316C15.5012 48.2735 15.3812 48.3715 15.2793 48.4509C15.2311 48.4884 15.196 48.5146 15.1704 48.533C15.1447 48.5514 15.1349 48.5574 15.1378 48.5556C15.139 48.5549 15.2267 48.4992 15.3812 48.4486C15.4616 48.4222 15.5577 48.398 15.6671 48.3825C15.7772 48.3669 15.8888 48.3619 15.9988 48.3673L15.875 50.8643L15.7512 53.3612C16.6494 53.4057 17.3411 53.0743 17.7844 52.7978C18.167 52.5591 18.5602 52.231 18.841 52.0012L17.2578 50.0664ZM15.875 50.8643L15.9994 48.3674C16.1095 48.3728 16.2199 48.3889 16.3278 48.4153C16.435 48.4415 16.5281 48.4751 16.6054 48.5093C16.7539 48.5748 16.8355 48.6388 16.8365 48.6396C16.8392 48.6417 16.8301 48.6348 16.8064 48.6139C16.7828 48.5931 16.7504 48.5635 16.7062 48.5214C16.6129 48.4326 16.5031 48.3231 16.3449 48.1648L14.5771 49.9326L12.8094 51.7004C13.0667 51.9577 13.4255 52.3232 13.7832 52.5991C14.1971 52.9182 14.8526 53.3164 15.7506 53.3612L15.875 50.8643ZM14.5771 49.9326L16.3449 48.1648L11.8342 43.6541L10.0664 45.4219L8.29864 47.1896L12.8094 51.7004L14.5771 49.9326ZM10.0664 45.4219L11.8342 43.6541C11.6761 43.496 11.5667 43.3864 11.478 43.2932C11.436 43.2491 11.4066 43.2169 11.3858 43.1933C11.365 43.1697 11.3582 43.1607 11.3603 43.1635C11.3613 43.1647 11.4254 43.2465 11.4909 43.3951C11.5251 43.4724 11.5586 43.5654 11.5848 43.6725C11.6111 43.7803 11.6272 43.8906 11.6326 44.0003L9.13574 44.125L6.63885 44.2497C6.68364 45.1466 7.08094 45.8017 7.40028 46.216C7.67605 46.5738 8.04141 46.9324 8.29864 47.1896L10.0664 45.4219ZM9.13574 44.125L11.6327 44.0009C11.6381 44.1106 11.6331 44.2219 11.6176 44.3318C11.6022 44.441 11.5781 44.5369 11.5518 44.6172C11.5014 44.7716 11.4458 44.8593 11.4449 44.8606C11.4431 44.8636 11.449 44.8539 11.4674 44.8283C11.4857 44.8028 11.5118 44.7678 11.5492 44.7197C11.6282 44.6181 11.7261 44.4981 11.8677 44.3251L9.93262 42.7422L7.99754 41.1593C7.76736 41.4407 7.43958 41.8339 7.20089 42.2171C6.92444 42.6609 6.59423 43.3522 6.63883 44.2491L9.13574 44.125ZM9.93262 42.7422L11.8677 44.3251L14.9888 40.5097L13.0537 38.9268L11.1187 37.3439L7.99757 41.1593L9.93262 42.7422ZM13.0537 38.9268L14.9888 40.5096C15.4548 39.94 15.9914 39.2944 16.3402 38.7108C16.6909 38.1242 17.2743 36.9129 16.6934 35.5109L14.3838 36.4678L12.0742 37.4247C12.0038 37.2549 11.9577 37.0683 11.9426 36.8744C11.9277 36.6837 11.9455 36.5204 11.9713 36.3964C12.0181 36.172 12.0926 36.0716 12.0485 36.1454C12.0096 36.2105 11.9258 36.3339 11.756 36.553C11.5891 36.7684 11.3848 37.0185 11.1186 37.3439L13.0537 38.9268ZM14.3838 36.4678L16.6933 35.5106C16.1123 34.1086 14.8429 33.665 14.1805 33.4984C13.521 33.3325 12.6851 33.2555 11.9528 33.1823L11.7041 35.6699L11.4554 38.1575C11.8736 38.1993 12.195 38.2316 12.4653 38.2659C12.7404 38.3008 12.887 38.3287 12.9606 38.3473C13.0441 38.3683 12.9206 38.35 12.7289 38.2246C12.6229 38.1552 12.4949 38.0524 12.3705 37.9071C12.2441 37.7594 12.1447 37.5947 12.0743 37.4249L14.3838 36.4678ZM11.7041 35.6699L11.9528 33.1823L7.04949 32.6921L6.80078 35.1797L6.55207 37.6673L11.4554 38.1575L11.7041 35.6699ZM6.80078 35.1797L7.04945 32.6921C6.82668 32.6698 6.67251 32.6542 6.54454 32.6383C6.484 32.6307 6.44065 32.6245 6.40964 32.6194C6.3785 32.6143 6.3674 32.6116 6.37076 32.6124C6.3722 32.6127 6.47363 32.6354 6.61865 32.7089C6.69413 32.7471 6.77916 32.7979 6.8674 32.8643C6.95621 32.9312 7.03853 33.0065 7.11239 33.0881L5.25879 34.7656L3.40519 36.4432C4.00843 37.1097 4.73156 37.3649 5.24089 37.483C5.68056 37.585 6.19061 37.6312 6.55211 37.6673L6.80078 35.1797ZM5.25879 34.7656L7.11266 33.0884C7.18641 33.1699 7.25304 33.2592 7.31064 33.3541C7.36787 33.4484 7.40995 33.5379 7.44049 33.6168C7.49917 33.7682 7.51166 33.8713 7.51186 33.8729C7.5123 33.8763 7.51075 33.8651 7.50876 33.8336C7.50678 33.8023 7.50484 33.7586 7.50334 33.6977C7.50018 33.569 7.5 33.4141 7.5 33.1904H5H2.5C2.5 33.554 2.49523 34.066 2.55311 34.5138C2.62015 35.0325 2.80228 35.7768 3.40492 36.4429L5.25879 34.7656ZM5 33.1904H7.5V26.8096H5H2.5V33.1904H5ZM5 26.8096H7.5C7.5 26.5859 7.50018 26.431 7.50334 26.3023C7.50484 26.2414 7.50678 26.1977 7.50876 26.1664C7.51075 26.135 7.51231 26.1237 7.51186 26.1272C7.51166 26.1287 7.49918 26.2318 7.44051 26.3832C7.40997 26.462 7.3679 26.5516 7.31069 26.6459C7.2531 26.7407 7.18648 26.83 7.11276 26.9115L5.25879 25.2344L3.40482 23.5572C2.8023 24.2233 2.62017 24.9675 2.55312 25.4861C2.49523 25.934 2.5 26.4459 2.5 26.8096H5ZM5.25879 25.2344L7.11246 26.9118C7.03858 26.9935 6.95624 27.0688 6.86739 27.1357C6.77912 27.2021 6.69407 27.2529 6.61856 27.2912C6.47351 27.3647 6.37205 27.3874 6.37065 27.3877C6.36731 27.3885 6.37842 27.3858 6.40958 27.3807C6.44062 27.3756 6.48399 27.3693 6.54457 27.3617C6.67261 27.3458 6.8268 27.3302 7.04966 27.3079L6.80078 24.8203L6.55191 22.3327C6.19057 22.3689 5.68051 22.415 5.24097 22.517C4.73172 22.6351 4.00845 22.8902 3.40512 23.5569L5.25879 25.2344ZM6.80078 24.8203L7.04988 27.3079L11.9552 26.8167L11.7061 24.3291L11.457 21.8415L6.55168 22.3328L6.80078 24.8203ZM11.7061 24.3291L11.9549 26.8167C12.687 26.7434 13.5228 26.6665 14.182 26.5006C14.8448 26.3338 16.1137 25.89 16.6945 24.488L14.3848 23.5312L12.0751 22.5745C12.1454 22.4048 12.2447 22.2403 12.3711 22.0925C12.4955 21.9471 12.6235 21.8442 12.7295 21.7748C12.9214 21.6491 13.0452 21.6308 12.9619 21.6518C12.8884 21.6703 12.742 21.6982 12.4669 21.7331C12.1967 21.7674 11.8754 21.7997 11.4572 21.8415L11.7061 24.3291ZM14.3848 23.5312L16.6945 24.4879C17.2751 23.0861 16.6919 21.875 16.3413 21.2883C15.9924 20.7045 15.4558 20.059 14.9897 19.4893L13.0547 21.0723L11.1197 22.6553C11.3858 22.9805 11.5902 23.2306 11.757 23.446C11.9268 23.6651 12.0106 23.7884 12.0495 23.8535C12.0935 23.9273 12.019 23.8269 11.9723 23.6025C11.9464 23.4785 11.9287 23.3153 11.9436 23.1246C11.9587 22.9309 12.0048 22.7443 12.0751 22.5746L14.3848 23.5312ZM13.0547 21.0723L14.9897 19.4894L11.8686 15.6739L9.93359 17.2568L7.99855 18.8397L11.1196 22.6552L13.0547 21.0723ZM9.93359 17.2568L11.8686 15.6738C11.7266 15.5003 11.6286 15.3803 11.5492 15.2783C11.5116 15.2301 11.4854 15.1949 11.467 15.1693C11.4485 15.1436 11.4425 15.1338 11.4443 15.1367C11.445 15.1378 11.5007 15.2255 11.5514 15.3801C11.5778 15.4606 11.602 15.5567 11.6175 15.6662C11.6331 15.7764 11.6381 15.8879 11.6327 15.998L9.13574 15.874L6.63882 15.75C6.5942 16.6485 6.92579 17.3403 7.20231 17.7835C7.44094 18.166 7.769 18.5592 7.99863 18.8398L9.93359 17.2568ZM9.13574 15.874L11.6326 15.9986C11.6271 16.1087 11.6111 16.2191 11.5847 16.327C11.5584 16.4342 11.5248 16.5273 11.4907 16.6046C11.4252 16.753 11.3612 16.8345 11.3604 16.8355C11.3584 16.8382 11.3653 16.829 11.3862 16.8053C11.407 16.7817 11.4366 16.7494 11.4786 16.7052C11.5675 16.6118 11.677 16.5021 11.8351 16.3439L10.0674 14.5762L8.29962 12.8084C8.04226 13.0658 7.67678 13.4245 7.40093 13.7822C7.08186 14.196 6.68365 14.8515 6.63885 15.7494L9.13574 15.874ZM10.0674 14.5762L11.8351 16.3439L16.3459 11.8332L14.5781 10.0654L12.8104 8.29766L8.29962 12.8084L10.0674 14.5762ZM14.5781 10.0654L16.3459 11.8332C16.504 11.6751 16.6136 11.5658 16.7068 11.4771C16.7509 11.4351 16.7831 11.4056 16.8067 11.3849C16.8303 11.3641 16.8393 11.3572 16.8365 11.3593C16.8353 11.3603 16.7535 11.4244 16.605 11.49C16.5276 11.5241 16.4346 11.5576 16.3274 11.5838C16.2196 11.6102 16.1094 11.6262 15.9996 11.6317L15.875 9.13477L15.7504 6.63787C14.8534 6.68264 14.1982 7.07999 13.784 7.39932C13.4262 7.67509 13.0676 8.04045 12.8104 8.29766L14.5781 10.0654ZM15.875 9.13477L15.999 11.6317C15.8893 11.6371 15.778 11.6322 15.6682 11.6167C15.559 11.6013 15.4631 11.5771 15.3828 11.5509C15.2285 11.5004 15.1408 11.4448 15.1395 11.444C15.1365 11.4421 15.1462 11.4481 15.1718 11.4664C15.1972 11.4847 15.2322 11.5108 15.2803 11.5482C15.3819 11.6272 15.5018 11.7251 15.6748 11.8666L17.2578 9.93164L18.8408 7.99665C18.5593 7.76638 18.1661 7.43861 17.7828 7.19987C17.339 6.92341 16.6478 6.5933 15.751 6.63784L15.875 9.13477ZM17.2578 9.93164L15.6747 11.8665L19.4891 14.9876L21.0723 13.0527L22.6554 11.1179L18.841 7.99679L17.2578 9.93164ZM21.0723 13.0527L19.4893 14.9877C20.059 15.4538 20.7045 15.9904 21.2883 16.3393C21.8749 16.6899 23.086 17.2732 24.4879 16.6925L23.5312 14.3828L22.5746 12.0731C22.7443 12.0028 22.9309 11.9567 23.1247 11.9416C23.3154 11.9267 23.4786 11.9445 23.6026 11.9703C23.827 12.0171 23.9273 12.0916 23.8535 12.0475C23.7884 12.0086 23.6651 11.9248 23.4459 11.755C23.2306 11.5882 22.9805 11.3838 22.6552 11.1177L21.0723 13.0527ZM23.5312 14.3828L24.488 16.6925C25.89 16.1118 26.3338 14.8429 26.5006 14.1801C26.6665 13.5209 26.7434 12.6851 26.8167 11.953L24.3291 11.7041L21.8415 11.4552C21.7997 11.8734 21.7673 12.1947 21.7331 12.465C21.6982 12.74 21.6703 12.8864 21.6518 12.96C21.6308 13.0433 21.6491 12.9195 21.7748 12.7276C21.8442 12.6215 21.9471 12.4935 22.0925 12.3691C22.2403 12.2427 22.4049 12.1434 22.5745 12.0731L23.5312 14.3828ZM24.3291 11.7041L26.8167 11.9528L27.3069 7.04949L24.8193 6.80078L22.3317 6.55207L21.8415 11.4554L24.3291 11.7041ZM24.8193 6.80078L27.3069 7.0497C27.3292 6.82744 27.3448 6.67338 27.3608 6.54589C27.3683 6.48553 27.3746 6.44233 27.3797 6.41146C27.3848 6.38047 27.3875 6.36947 27.3867 6.3729C27.3863 6.37454 27.3636 6.47574 27.2901 6.62039C27.2519 6.69565 27.2011 6.78039 27.1349 6.86832C27.0682 6.95683 26.9932 7.03886 26.9118 7.11247L25.2344 5.25879L23.5569 3.4051C22.8916 4.0072 22.6358 4.72882 22.517 5.23868C22.4144 5.67911 22.3681 6.18906 22.3318 6.55186L24.8193 6.80078ZM25.2344 5.25879L26.9115 7.11278C26.83 7.1865 26.7407 7.25311 26.6458 7.3107C26.5516 7.36791 26.462 7.40997 26.3832 7.44051C26.2318 7.49918 26.1287 7.51166 26.1272 7.51186C26.1237 7.51231 26.135 7.51075 26.1664 7.50876C26.1977 7.50678 26.2414 7.50484 26.3023 7.50334C26.431 7.50018 26.5859 7.5 26.8096 7.5V5V2.5C26.4459 2.5 25.934 2.49523 25.4861 2.55312C24.9675 2.62017 24.2233 2.80231 23.5573 3.4048L25.2344 5.25879ZM26.8096 5V7.5H33.1895V5V2.5H26.8096V5ZM30 20V17.5C23.0964 17.5 17.5 23.0964 17.5 30H20H22.5C22.5 25.8579 25.8579 22.5 30 22.5V20ZM20 30H17.5C17.5 36.9036 23.0964 42.5 30 42.5V40V37.5C25.8579 37.5 22.5 34.1421 22.5 30H20ZM30 40V42.5C36.9036 42.5 42.5 36.9036 42.5 30H40H37.5C37.5 34.1421 34.1421 37.5 30 37.5V40ZM40 30H42.5C42.5 23.0964 36.9036 17.5 30 17.5V20V22.5C34.1421 22.5 37.5 25.8579 37.5 30H40Z" fill="#116D5C"/>
</g>
<defs>
<filter id="filter0_d_4550_527" x="0.5" y="0.499878" width="63" height="63.0002" filterUnits="userSpaceOnUse" color-interpolation-filters="sRGB">
<feFlood flood-opacity="0" result="BackgroundImageFix"/>
<feColorMatrix in="SourceAlpha" type="matrix" values="0 0 0 0 0 0 0 0 0 0 0 0 0 0 0 0 0 0 127 0" result="hardAlpha"/>
<feOffset dx="2" dy="2"/>
<feGaussianBlur stdDeviation="2"/>
<feComposite in2="hardAlpha" operator="out"/>
<feColorMatrix type="matrix" values="0 0 0 0 0.0627451 0 0 0 0 0.113725 0 0 0 0 0.105882 0 0 0 0.5 0"/>
<feBlend mode="normal" in2="BackgroundImageFix" result="effect1_dropShadow_4550_527"/>
<feBlend mode="normal" in="SourceGraphic" in2="effect1_dropShadow_4550_527" result="shape"/>
</filter>
</defs>
</svg>
