<svg width="60" height="60" viewBox="0 0 60 60" fill="none" xmlns="http://www.w3.org/2000/svg">
<path d="M0 30C0 13.4315 13.4315 0 30 0C46.5685 0 60 13.4315 60 30C60 46.5685 46.5685 60 30 60C13.4315 60 0 46.5685 0 30Z" fill="#F1F7F0"/>
<g filter="url(#filter0_d_4549_385)">
<path d="M29.9891 35C33.8415 35 37.5862 36.2711 40.6425 38.6162C43.6987 40.9614 45.8954 44.2496 46.8925 47.9707C47.2498 49.3044 46.4585 50.6749 45.1249 51.0322C43.7912 51.3895 42.4207 50.5983 42.0634 49.2646C41.3512 46.6068 39.7815 44.2581 37.5985 42.583C35.4155 40.908 32.7408 40 29.9891 40C27.2375 40 24.5628 40.908 22.3798 42.583C20.1967 44.2581 18.6271 46.6068 17.9149 49.2646C17.5576 50.5983 16.187 51.3895 14.8534 51.0322C13.5197 50.6749 12.7285 49.3044 13.0858 47.9707C14.0829 44.2496 16.2796 40.9614 19.3358 38.6162C22.3921 36.2711 26.1368 35 29.9891 35Z" fill="#116D5C"/>
</g>
<g filter="url(#filter1_d_4549_385)">
<path d="M37 16.5C37 12.3579 33.6421 9 29.5 9C25.3579 9 22 12.3579 22 16.5C22 20.6421 25.3579 24 29.5 24C33.6421 24 37 20.6421 37 16.5ZM42 16.5C42 23.4036 36.4036 29 29.5 29C22.5964 29 17 23.4036 17 16.5C17 9.59644 22.5964 4 29.5 4C36.4036 4 42 9.59644 42 16.5Z" fill="#116D5C"/>
</g>
<defs>
<filter id="filter0_d_4549_385" x="11" y="33" width="41.9783" height="24.118" filterUnits="userSpaceOnUse" color-interpolation-filters="sRGB">
<feFlood flood-opacity="0" result="BackgroundImageFix"/>
<feColorMatrix in="SourceAlpha" type="matrix" values="0 0 0 0 0 0 0 0 0 0 0 0 0 0 0 0 0 0 127 0" result="hardAlpha"/>
<feOffset dx="2" dy="2"/>
<feGaussianBlur stdDeviation="2"/>
<feColorMatrix type="matrix" values="0 0 0 0 0.0627451 0 0 0 0 0.113725 0 0 0 0 0.105882 0 0 0 0.5 0"/>
<feBlend mode="normal" in2="BackgroundImageFix" result="effect1_dropShadow_4549_385"/>
<feBlend mode="normal" in="SourceGraphic" in2="effect1_dropShadow_4549_385" result="shape"/>
</filter>
<filter id="filter1_d_4549_385" x="15" y="2" width="33" height="33" filterUnits="userSpaceOnUse" color-interpolation-filters="sRGB">
<feFlood flood-opacity="0" result="BackgroundImageFix"/>
<feColorMatrix in="SourceAlpha" type="matrix" values="0 0 0 0 0 0 0 0 0 0 0 0 0 0 0 0 0 0 127 0" result="hardAlpha"/>
<feOffset dx="2" dy="2"/>
<feGaussianBlur stdDeviation="2"/>
<feColorMatrix type="matrix" values="0 0 0 0 0.0627451 0 0 0 0 0.113725 0 0 0 0 0.105882 0 0 0 0.5 0"/>
<feBlend mode="normal" in2="BackgroundImageFix" result="effect1_dropShadow_4549_385"/>
<feBlend mode="normal" in="SourceGraphic" in2="effect1_dropShadow_4549_385" result="shape"/>
</filter>
</defs>
</svg>
