<svg width="60" height="60" viewBox="0 0 60 60" fill="none" xmlns="http://www.w3.org/2000/svg">
<path d="M0 30C0 13.4315 13.4315 0 30 0C46.5685 0 60 13.4315 60 30C60 46.5685 46.5685 60 30 60C13.4315 60 0 46.5685 0 30Z" fill="#F1F7F0"/>
<g filter="url(#filter0_d_4546_363)">
<path d="M32.5 16C32.5 11.8579 29.1421 8.5 25 8.5C20.8579 8.5 17.5 11.8579 17.5 16C17.5 20.1421 20.8579 23.5 25 23.5C29.1421 23.5 32.5 20.1421 32.5 16ZM37.5 16C37.5 22.9036 31.9036 28.5 25 28.5C18.0964 28.5 12.5 22.9036 12.5 16C12.5 9.09644 18.0964 3.5 25 3.5C31.9036 3.5 37.5 9.09644 37.5 16Z" fill="#116D5C"/>
</g>
<g filter="url(#filter1_d_4546_363)">
<path d="M24.9999 33.5C28.8522 33.5 32.5969 34.7711 35.6532 37.1162C38.7095 39.4614 40.9061 42.7496 41.9032 46.4707C42.2606 47.8044 41.4693 49.1749 40.1356 49.5322C38.802 49.8895 37.4314 49.0983 37.0741 47.7646C36.3619 45.1068 34.7923 42.7581 32.6093 41.083C30.4262 39.408 27.7515 38.5 24.9999 38.5C22.2483 38.5 19.5735 39.408 17.3905 41.083C15.2075 42.7581 13.6379 45.1068 12.9257 47.7646C12.5683 49.0983 11.1978 49.8895 9.86414 49.5322C8.53047 49.1749 7.73921 47.8044 8.09656 46.4707C9.09363 42.7496 11.2903 39.4614 14.3466 37.1162C17.4028 34.7711 21.1476 33.5 24.9999 33.5Z" fill="#116D5C"/>
</g>
<g filter="url(#filter2_d_4546_363)">
<path d="M45.5 37L45.5 22C45.5 20.6193 46.6193 19.5 48 19.5C49.3807 19.5 50.5 20.6193 50.5 22L50.5 37C50.5 38.3807 49.3807 39.5 48 39.5C46.6193 39.5 45.5 38.3807 45.5 37Z" fill="#116D5C"/>
</g>
<path d="M40.5 27L55.5 27C56.8807 27 58 28.1193 58 29.5C58 30.8807 56.8807 32 55.5 32L40.5 32C39.1193 32 38 30.8807 38 29.5C38 28.1193 39.1193 27 40.5 27Z" fill="#116D5C"/>
<defs>
<filter id="filter0_d_4546_363" x="10.5" y="1.5" width="33" height="33" filterUnits="userSpaceOnUse" color-interpolation-filters="sRGB">
<feFlood flood-opacity="0" result="BackgroundImageFix"/>
<feColorMatrix in="SourceAlpha" type="matrix" values="0 0 0 0 0 0 0 0 0 0 0 0 0 0 0 0 0 0 127 0" result="hardAlpha"/>
<feOffset dx="2" dy="2"/>
<feGaussianBlur stdDeviation="2"/>
<feColorMatrix type="matrix" values="0 0 0 0 0.0627451 0 0 0 0 0.113725 0 0 0 0 0.105882 0 0 0 0.5 0"/>
<feBlend mode="normal" in2="BackgroundImageFix" result="effect1_dropShadow_4546_363"/>
<feBlend mode="normal" in="SourceGraphic" in2="effect1_dropShadow_4546_363" result="shape"/>
</filter>
<filter id="filter1_d_4546_363" x="6.01074" y="31.5" width="41.9785" height="24.118" filterUnits="userSpaceOnUse" color-interpolation-filters="sRGB">
<feFlood flood-opacity="0" result="BackgroundImageFix"/>
<feColorMatrix in="SourceAlpha" type="matrix" values="0 0 0 0 0 0 0 0 0 0 0 0 0 0 0 0 0 0 127 0" result="hardAlpha"/>
<feOffset dx="2" dy="2"/>
<feGaussianBlur stdDeviation="2"/>
<feColorMatrix type="matrix" values="0 0 0 0 0.0627451 0 0 0 0 0.113725 0 0 0 0 0.105882 0 0 0 0.5 0"/>
<feBlend mode="normal" in2="BackgroundImageFix" result="effect1_dropShadow_4546_363"/>
<feBlend mode="normal" in="SourceGraphic" in2="effect1_dropShadow_4546_363" result="shape"/>
</filter>
<filter id="filter2_d_4546_363" x="41.5" y="19.5" width="13" height="28" filterUnits="userSpaceOnUse" color-interpolation-filters="sRGB">
<feFlood flood-opacity="0" result="BackgroundImageFix"/>
<feColorMatrix in="SourceAlpha" type="matrix" values="0 0 0 0 0 0 0 0 0 0 0 0 0 0 0 0 0 0 127 0" result="hardAlpha"/>
<feOffset dy="4"/>
<feGaussianBlur stdDeviation="2"/>
<feColorMatrix type="matrix" values="0 0 0 0 0.0627451 0 0 0 0 0.113725 0 0 0 0 0.105882 0 0 0 0.5 0"/>
<feBlend mode="normal" in2="BackgroundImageFix" result="effect1_dropShadow_4546_363"/>
<feBlend mode="normal" in="SourceGraphic" in2="effect1_dropShadow_4546_363" result="shape"/>
</filter>
</defs>
</svg>
