<svg width="61" height="60" viewBox="0 0 61 60" fill="none" xmlns="http://www.w3.org/2000/svg">
<path d="M0 30C0 13.4315 13.4315 0 30 0C46.5685 0 60 13.4315 60 30C60 46.5685 46.5685 60 30 60C13.4315 60 0 46.5685 0 30Z" fill="#F1F7F0"/>
<g filter="url(#filter0_d_4550_423)">
<circle cx="30" cy="30" r="7.5" stroke="#116D5C" stroke-width="5" shape-rendering="crispEdges"/>
</g>
<g filter="url(#filter1_d_4550_423)">
<path d="M51.7178 28.9174C52.0934 29.4162 52.2812 29.6656 52.2812 30C52.2812 30.3344 52.0934 30.5838 51.7178 31.0826C49.1248 34.5259 40.3839 45 30 45C19.6161 45 10.8752 34.5259 8.28221 31.0826C7.90661 30.5838 7.71881 30.3344 7.71881 30C7.71881 29.6656 7.90661 29.4162 8.28221 28.9174C10.8752 25.4741 19.6161 15 30 15C40.3839 15 49.1248 25.4741 51.7178 28.9174Z" stroke="#116D5C" stroke-width="5"/>
</g>
<defs>
<filter id="filter0_d_4550_423" x="18" y="18" width="28" height="28" filterUnits="userSpaceOnUse" color-interpolation-filters="sRGB">
<feFlood flood-opacity="0" result="BackgroundImageFix"/>
<feColorMatrix in="SourceAlpha" type="matrix" values="0 0 0 0 0 0 0 0 0 0 0 0 0 0 0 0 0 0 127 0" result="hardAlpha"/>
<feOffset dx="2" dy="2"/>
<feGaussianBlur stdDeviation="2"/>
<feComposite in2="hardAlpha" operator="out"/>
<feColorMatrix type="matrix" values="0 0 0 0 0.0627451 0 0 0 0 0.113725 0 0 0 0 0.105882 0 0 0 0.5 0"/>
<feBlend mode="normal" in2="BackgroundImageFix" result="effect1_dropShadow_4550_423"/>
<feBlend mode="normal" in="SourceGraphic" in2="effect1_dropShadow_4550_423" result="shape"/>
</filter>
<filter id="filter1_d_4550_423" x="3.21875" y="10.5" width="57.5625" height="43" filterUnits="userSpaceOnUse" color-interpolation-filters="sRGB">
<feFlood flood-opacity="0" result="BackgroundImageFix"/>
<feColorMatrix in="SourceAlpha" type="matrix" values="0 0 0 0 0 0 0 0 0 0 0 0 0 0 0 0 0 0 127 0" result="hardAlpha"/>
<feOffset dx="2" dy="2"/>
<feGaussianBlur stdDeviation="2"/>
<feColorMatrix type="matrix" values="0 0 0 0 0.0627451 0 0 0 0 0.113725 0 0 0 0 0.105882 0 0 0 0.5 0"/>
<feBlend mode="normal" in2="BackgroundImageFix" result="effect1_dropShadow_4550_423"/>
<feBlend mode="normal" in="SourceGraphic" in2="effect1_dropShadow_4550_423" result="shape"/>
</filter>
</defs>
</svg>
