<svg width="294" height="60" viewBox="0 0 294 60" fill="none" xmlns="http://www.w3.org/2000/svg">
<path d="M293.531 37.8187C293.531 42.1896 292.545 46.0541 290.573 49.4122C288.654 52.7171 286.042 55.3023 282.737 57.1679C279.486 59.0335 275.834 59.9663 271.783 59.9663C267.732 59.9663 264.054 59.0335 260.75 57.1679C257.498 55.3023 254.886 52.7171 252.914 49.4122C250.995 46.0541 250.036 42.1896 250.036 37.8187C250.036 33.4479 250.995 29.61 252.914 26.3052C254.886 22.9471 257.498 20.3352 260.75 18.4696C264.054 16.5507 267.732 15.5912 271.783 15.5912C275.834 15.5912 279.486 16.5507 282.737 18.4696C286.042 20.3352 288.654 22.9471 290.573 26.3052C292.545 29.61 293.531 33.4479 293.531 37.8187ZM283.937 37.8187C283.937 35.1003 283.377 32.7549 282.258 30.7827C281.191 28.7571 279.726 27.1847 277.86 26.0653C276.048 24.9459 274.022 24.3863 271.783 24.3863C269.545 24.3863 267.493 24.9459 265.627 26.0653C263.815 27.1847 262.349 28.7571 261.229 30.7827C260.163 32.7549 259.63 35.1003 259.63 37.8187C259.63 40.4839 260.163 42.8293 261.229 44.8548C262.349 46.827 263.815 48.3728 265.627 49.4922C267.493 50.6116 269.545 51.1713 271.783 51.1713C274.022 51.1713 276.048 50.6116 277.86 49.4922C279.726 48.3728 281.191 46.827 282.258 44.8548C283.377 42.8293 283.937 40.4839 283.937 37.8187Z" fill="#116D5C"/>
<path d="M242.324 0C243.71 0 244.856 0.453077 245.762 1.35923C246.669 2.26539 247.122 3.43807 247.122 4.87727V54.2896C247.122 55.6755 246.669 56.8482 245.762 57.8076C244.856 58.7138 243.71 59.1669 242.324 59.1669C240.938 59.1669 239.792 58.7138 238.886 57.8076C237.98 56.8482 237.527 55.6755 237.527 54.2896V50.3718L239.286 51.0914C239.286 51.7843 238.913 52.6372 238.167 53.6499C237.42 54.6094 236.408 55.5689 235.128 56.5283C233.849 57.4878 232.33 58.314 230.571 59.0069C228.865 59.6466 227 59.9664 224.974 59.9664C221.296 59.9664 217.965 59.0336 214.98 57.168C211.995 55.2491 209.623 52.6372 207.864 49.3324C206.158 45.9743 205.305 42.1364 205.305 37.8188C205.305 33.4479 206.158 29.6101 207.864 26.3053C209.623 22.9471 211.968 20.3353 214.9 18.4697C217.831 16.5507 221.083 15.5913 224.654 15.5913C226.946 15.5913 229.052 15.9377 230.971 16.6307C232.89 17.3236 234.542 18.2031 235.928 19.2692C237.367 20.3353 238.46 21.428 239.206 22.5474C240.006 23.6134 240.405 24.5196 240.405 25.2658L237.527 26.3053V4.87727C237.527 3.49138 237.98 2.34535 238.886 1.43919C239.792 0.479728 240.938 0 242.324 0ZM226.173 51.1713C228.519 51.1713 230.571 50.585 232.33 49.4123C234.089 48.2396 235.448 46.6405 236.408 44.615C237.42 42.5895 237.927 40.3241 237.927 37.8188C237.927 35.2602 237.42 32.9682 236.408 30.9427C235.448 28.9171 234.089 27.318 232.33 26.1454C230.571 24.9727 228.519 24.3863 226.173 24.3863C223.881 24.3863 221.856 24.9727 220.097 26.1454C218.338 27.318 216.952 28.9171 215.939 30.9427C214.98 32.9682 214.5 35.2602 214.5 37.8188C214.5 40.3241 214.98 42.5895 215.939 44.615C216.952 46.6405 218.338 48.2396 220.097 49.4123C221.856 50.585 223.881 51.1713 226.173 51.1713Z" fill="#116D5C"/>
<path d="M187.111 16.4244C191.056 16.4244 194.041 17.2506 196.066 18.903C198.145 20.5554 199.558 22.7675 200.304 25.5393C201.103 28.2578 201.503 31.2961 201.503 34.6542V55.1227C201.503 56.5086 201.05 57.6813 200.144 58.6407C199.238 59.5469 198.092 60 196.706 60C195.32 60 194.174 59.5469 193.268 58.6407C192.362 57.6813 191.909 56.5086 191.909 55.1227V34.6542C191.909 32.8952 191.669 31.3227 191.189 29.9368C190.763 28.4976 189.963 27.3516 188.79 26.4987C187.618 25.6459 185.939 25.2195 183.753 25.2195C181.621 25.2195 179.809 25.6459 178.316 26.4987C176.877 27.3516 175.758 28.4976 174.958 29.9368C174.212 31.3227 173.839 32.8952 173.839 34.6542V55.1227C173.839 56.5086 173.386 57.6813 172.48 58.6407C171.573 59.5469 170.427 60 169.041 60C167.656 60 166.51 59.5469 165.603 58.6407C164.697 57.6813 164.244 56.5086 164.244 55.1227V22.1012C164.244 20.7153 164.697 19.5693 165.603 18.6631C166.51 17.7037 167.656 17.2239 169.041 17.2239C170.427 17.2239 171.573 17.7037 172.48 18.6631C173.386 19.5693 173.839 20.7153 173.839 22.1012V25.5393L172.639 25.2994C173.119 24.3932 173.812 23.4338 174.718 22.421C175.624 21.3549 176.69 20.3688 177.916 19.4627C179.142 18.5565 180.528 17.8369 182.074 17.3039C183.62 16.7175 185.299 16.4244 187.111 16.4244Z" fill="#116D5C"/>
<path d="M142.002 59.9117C137.471 59.9117 133.526 58.9788 130.168 57.1132C126.863 55.1943 124.305 52.6091 122.493 49.3576C120.734 46.106 119.854 42.4281 119.854 38.3237C119.854 33.5264 120.813 29.4487 122.732 26.0906C124.705 22.6792 127.263 20.0673 130.408 18.255C133.553 16.4427 136.884 15.5365 140.402 15.5365C143.121 15.5365 145.679 16.0962 148.078 17.2156C150.53 18.3349 152.689 19.8807 154.554 21.853C156.42 23.7719 157.886 26.0106 158.952 28.5692C160.071 31.1278 160.631 33.8462 160.631 36.7246C160.578 38.0039 160.071 39.0433 159.112 39.8429C158.152 40.6424 157.033 41.0422 155.754 41.0422H125.211L122.812 33.0467H152.156L150.397 34.6458V32.487C150.29 30.9412 149.731 29.5553 148.718 28.3293C147.758 27.1034 146.532 26.1439 145.04 25.4509C143.601 24.7047 142.055 24.3316 140.402 24.3316C138.803 24.3316 137.311 24.5448 135.925 24.9712C134.539 25.3976 133.34 26.1172 132.327 27.13C131.314 28.1428 130.515 29.502 129.928 31.2077C129.342 32.9134 129.049 35.0722 129.049 37.6841C129.049 40.5625 129.635 43.0144 130.808 45.04C132.034 47.0122 133.58 48.5314 135.445 49.5974C137.364 50.6102 139.39 51.1166 141.522 51.1166C143.494 51.1166 145.066 50.9567 146.239 50.6368C147.412 50.317 148.345 49.9439 149.038 49.5175C149.784 49.0377 150.45 48.638 151.036 48.3181C151.996 47.8384 152.902 47.5985 153.755 47.5985C154.928 47.5985 155.887 47.9983 156.633 48.7979C157.433 49.5974 157.833 50.5302 157.833 51.5963C157.833 53.0355 157.086 54.3414 155.594 55.5141C154.208 56.6868 152.262 57.7262 149.757 58.6324C147.252 59.4852 144.667 59.9117 142.002 59.9117Z" fill="#116D5C"/>
<path d="M112.754 16.4244C114.14 16.4244 115.286 16.9041 116.192 17.8636C117.099 18.7697 117.552 19.9158 117.552 21.3016V41.6103C117.552 47.2604 115.979 51.7379 112.834 55.0428C109.689 58.3476 105.159 60 99.242 60C93.3253 60 88.7945 58.3476 85.6496 55.0428C82.558 51.7379 81.0122 47.2604 81.0122 41.6103V21.3016C81.0122 19.9158 81.4653 18.7697 82.3714 17.8636C83.2776 16.9041 84.4236 16.4244 85.8095 16.4244C87.1954 16.4244 88.3414 16.9041 89.2476 17.8636C90.1537 18.7697 90.6068 19.9158 90.6068 21.3016V41.6103C90.6068 44.8618 91.3264 47.2871 92.7656 48.8862C94.2048 50.432 96.3636 51.2049 99.242 51.2049C102.174 51.2049 104.359 50.432 105.798 48.8862C107.237 47.2871 107.957 44.8618 107.957 41.6103V21.3016C107.957 19.9158 108.41 18.7697 109.316 17.8636C110.222 16.9041 111.368 16.4244 112.754 16.4244Z" fill="#116D5C"/>
<path d="M35.7845 16.4244C40.0488 16.4244 43.1937 17.4638 45.2192 19.5426C47.2447 21.5682 48.5773 24.2067 49.2169 27.4582L47.8577 26.7386L48.4973 25.4593C49.137 24.2333 50.1231 22.9274 51.4557 21.5415C52.7883 20.1023 54.3874 18.903 56.253 17.9435C58.1719 16.9308 60.304 16.4244 62.6494 16.4244C66.4872 16.4244 69.3923 17.2506 71.3645 18.903C73.39 20.5554 74.7759 22.7675 75.5221 25.5393C76.2684 28.2578 76.6415 31.2961 76.6415 34.6542V55.1227C76.6415 56.5086 76.1884 57.6813 75.2823 58.6407C74.3761 59.5469 73.2301 60 71.8442 60C70.4583 60 69.3123 59.5469 68.4062 58.6407C67.5 57.6813 67.0469 56.5086 67.0469 55.1227V34.6542C67.0469 32.8952 66.8337 31.3227 66.4073 29.9368C65.9808 28.4976 65.2079 27.3516 64.0886 26.4987C62.9692 25.6459 61.3701 25.2195 59.2913 25.2195C57.2658 25.2195 55.5334 25.6459 54.0942 26.4987C52.655 27.3516 51.5623 28.4976 50.816 29.9368C50.1231 31.3227 49.7766 32.8952 49.7766 34.6542V55.1227C49.7766 56.5086 49.3235 57.6813 48.4174 58.6407C47.5112 59.5469 46.3652 60 44.9793 60C43.5934 60 42.4474 59.5469 41.5413 58.6407C40.6351 57.6813 40.182 56.5086 40.182 55.1227V34.6542C40.182 32.8952 39.9688 31.3227 39.5424 29.9368C39.116 28.4976 38.3431 27.3516 37.2237 26.4987C36.1043 25.6459 34.5052 25.2195 32.4264 25.2195C30.4009 25.2195 28.6685 25.6459 27.2293 26.4987C25.7901 27.3516 24.6974 28.4976 23.9512 29.9368C23.2582 31.3227 22.9117 32.8952 22.9117 34.6542V55.1227C22.9117 56.5086 22.4587 57.6813 21.5525 58.6407C20.6463 59.5469 19.5003 60 18.1144 60C16.7286 60 15.5825 59.5469 14.6764 58.6407C13.7702 57.6813 13.3171 56.5086 13.3171 55.1227V22.1012C13.3171 20.7153 13.7702 19.5693 14.6764 18.6631C15.5825 17.7037 16.7286 17.2239 18.1144 17.2239C19.5003 17.2239 20.6463 17.7037 21.5525 18.6631C22.4587 19.5693 22.9117 20.7153 22.9117 22.1012V25.5393L21.7124 25.2994C22.1921 24.3932 22.8584 23.4338 23.7113 22.421C24.5641 21.3549 25.6036 20.3688 26.8295 19.4627C28.0555 18.5565 29.4147 17.8369 30.9072 17.3039C32.3997 16.7175 34.0255 16.4244 35.7845 16.4244Z" fill="#116D5C"/>
<path d="M9.83447 55.052C9.83447 56.4379 9.38139 57.6106 8.47523 58.57C7.56908 59.4762 6.42305 59.9293 5.03717 59.9293C3.65128 59.9293 2.50526 59.4762 1.5991 58.57C0.692944 57.6106 0.239865 56.4379 0.239865 55.052V22.0305C0.239865 20.6446 0.692944 19.4986 1.5991 18.5924C2.50526 17.633 3.65128 17.1532 5.03717 17.1532C6.42305 17.1532 7.56908 17.633 8.47523 18.5924C9.38139 19.4986 9.83447 20.6446 9.83447 22.0305V55.052ZM4.95721 11.9561C3.1449 11.9561 1.86562 11.663 1.11937 11.0766C0.373123 10.4903 0 9.45087 0 7.95838V6.43923C0 4.89343 0.399775 3.85401 1.19933 3.32098C2.05218 2.73464 3.33146 2.44147 5.03717 2.44147C6.90278 2.44147 8.20872 2.73464 8.95496 3.32098C9.70121 3.90731 10.0743 4.94673 10.0743 6.43923V7.95838C10.0743 9.50418 9.67456 10.5702 8.87501 11.1566C8.07546 11.6896 6.76952 11.9561 4.95721 11.9561Z" fill="#116D5C"/>
</svg>
