<svg width="1440" height="900" viewBox="0 0 1440 900" fill="none" xmlns="http://www.w3.org/2000/svg">
<rect width="1440" height="900" fill="white"/>
<g clip-path="url(#clip0_4519_331)">
<rect width="120" height="20" fill="#F1F7F0"/>
<path d="M110 0C104.477 0 100 4.47715 100 10V20H20V10C20 4.47715 15.5228 0 10 0H110Z" fill="#00A086"/>
<rect width="120" height="80" transform="translate(0 20)" fill="#F1F7F0"/>
<path d="M20 20H100V60C100 82.0914 82.0914 100 60 100V100C37.9086 100 20 82.0914 20 60V20Z" fill="#00A086"/>
<path d="M30 60C30 43.4315 43.4315 30 60 30C76.5685 30 90 43.4315 90 60C90 76.5685 76.5685 90 60 90C43.4315 90 30 76.5685 30 60Z" fill="#F1F7F0"/>
<g filter="url(#filter0_d_4519_331)">
<path d="M42.5 47.5H77.5" stroke="#116D5C" stroke-width="5" stroke-linecap="round"/>
</g>
<g filter="url(#filter1_d_4519_331)">
<path d="M42.5 60H77.5" stroke="#116D5C" stroke-width="5" stroke-linecap="round"/>
</g>
<g filter="url(#filter2_d_4519_331)">
<path d="M42.5 72.5H77.5" stroke="#116D5C" stroke-width="5" stroke-linecap="round"/>
</g>
<rect width="120" height="20" transform="translate(0 100)" fill="#F1F7F0"/>
<rect width="120" height="80" transform="translate(0 120)" fill="#F1F7F0"/>
<rect width="120" height="20" transform="translate(0 200)" fill="#F1F7F0"/>
<path d="M0 210C0 215.523 4.47715 220 10 220H0V210Z" fill="#00A086"/>
<rect width="120" height="80" transform="translate(0 220)" fill="#F1F7F0"/>
<path d="M0 220H60C82.0914 220 100 237.909 100 260V260C100 282.091 82.0914 300 60 300H0V220Z" fill="#00A086"/>
<path d="M30 260C30 243.431 43.4315 230 60 230C76.5685 230 90 243.431 90 260C90 276.569 76.5685 290 60 290C43.4315 290 30 276.569 30 260Z" fill="#F1F7F0"/>
<g filter="url(#filter3_d_4519_331)">
<rect x="42" y="267" width="14" height="12" rx="1" stroke="#116D5C" stroke-width="5" stroke-linejoin="round"/>
</g>
<g filter="url(#filter4_d_4519_331)">
<rect x="64" y="263" width="14" height="16" rx="1" stroke="#116D5C" stroke-width="5" stroke-linejoin="round"/>
</g>
<g filter="url(#filter5_d_4519_331)">
<rect x="64" y="242" width="14" height="12" rx="1" stroke="#116D5C" stroke-width="5" stroke-linejoin="round"/>
</g>
<g filter="url(#filter6_d_4519_331)">
<rect x="42" y="241" width="14" height="16" rx="1" stroke="#116D5C" stroke-width="5" stroke-linejoin="round"/>
</g>
<rect width="120" height="20" transform="translate(0 300)" fill="#F1F7F0"/>
<path d="M10 300C4.47715 300 0 304.477 0 310C0 315.523 4.47715 320 10 320H0V300H10Z" fill="#00A086"/>
<rect width="120" height="80" transform="translate(0 320)" fill="#F1F7F0"/>
<path d="M0 320H60C82.0914 320 100 337.909 100 360V360C100 382.091 82.0914 400 60 400H0V320Z" fill="#00A086"/>
<path d="M30 360C30 343.431 43.4315 330 60 330C76.5685 330 90 343.431 90 360C90 376.569 76.5685 390 60 390C43.4315 390 30 376.569 30 360Z" fill="#F1F7F0"/>
<g filter="url(#filter7_d_4519_331)">
<path d="M59.9891 365C63.8415 365 67.5862 366.271 70.6425 368.616C73.6987 370.961 75.8954 374.25 76.8925 377.971C77.2498 379.304 76.4585 380.675 75.1249 381.032C73.7912 381.39 72.4207 380.598 72.0634 379.265C71.3512 376.607 69.7815 374.258 67.5985 372.583C65.4155 370.908 62.7408 370 59.9891 370C57.2375 370 54.5628 370.908 52.3798 372.583C50.1967 374.258 48.6271 376.607 47.9149 379.265C47.5576 380.598 46.187 381.39 44.8534 381.032C43.5197 380.675 42.7285 379.304 43.0858 377.971C44.0829 374.25 46.2796 370.961 49.3358 368.616C52.3921 366.271 56.1368 365 59.9891 365Z" fill="#116D5C"/>
</g>
<g filter="url(#filter8_d_4519_331)">
<path d="M67 346.5C67 342.358 63.6421 339 59.5 339C55.3579 339 52 342.358 52 346.5C52 350.642 55.3579 354 59.5 354C63.6421 354 67 350.642 67 346.5ZM72 346.5C72 353.404 66.4036 359 59.5 359C52.5964 359 47 353.404 47 346.5C47 339.596 52.5964 334 59.5 334C66.4036 334 72 339.596 72 346.5Z" fill="#116D5C"/>
</g>
<rect width="120" height="20" transform="translate(0 400)" fill="#F1F7F0"/>
<path d="M10 400C4.47715 400 0 404.477 0 410C0 415.523 4.47715 420 10 420H0V400H10Z" fill="#00A086"/>
<rect width="120" height="80" transform="translate(0 420)" fill="#F1F7F0"/>
<path d="M0 420H60C82.0914 420 100 437.909 100 460V460C100 482.091 82.0914 500 60 500H0V420Z" fill="#00A086"/>
<path d="M30 460C30 443.431 43.4315 430 60 430C76.5685 430 90 443.431 90 460C90 476.569 76.5685 490 60 490C43.4315 490 30 476.569 30 460Z" fill="#F1F7F0"/>
<g filter="url(#filter9_d_4519_331)">
<path d="M66.4983 462.529L52.2471 445.545M40.1093 444.154L46.4317 438.848C46.4952 438.795 46.5898 438.803 46.643 438.867L52.2471 445.545M52.2471 445.545L45.8097 450.947" stroke="#116D5C" stroke-width="4" stroke-linecap="round"/>
</g>
<g filter="url(#filter10_d_4519_331)">
<circle cx="10.5042" cy="10.5042" r="8.5042" transform="matrix(-0.642788 -0.766044 -0.766044 0.642788 88.1001 471.932)" stroke="#116D5C" stroke-width="4"/>
</g>
<g filter="url(#filter11_d_4519_331)">
<path d="M53.1604 462.461L67.3704 445.526M79.4917 444.154L73.1693 438.848C73.1058 438.795 73.0112 438.803 72.958 438.867L67.3704 445.526M67.3704 445.526L73.8077 450.927" stroke="#116D5C" stroke-width="4" stroke-linecap="round"/>
</g>
<g filter="url(#filter12_d_4519_331)">
<circle cx="46.2987" cy="470.638" r="8.5042" transform="rotate(-50 46.2987 470.638)" stroke="#116D5C" stroke-width="4"/>
</g>
<rect width="120" height="20" transform="translate(0 500)" fill="#F1F7F0"/>
<path d="M10 500C4.47715 500 0 504.477 0 510C0 515.523 4.47715 520 10 520H0V500H10Z" fill="#00A086"/>
<rect width="120" height="80" transform="translate(0 520)" fill="#F1F7F0"/>
<path d="M0 520H60C82.0914 520 100 537.909 100 560V560C100 582.091 82.0914 600 60 600H0V520Z" fill="#00A086"/>
<path d="M30 560C30 543.431 43.4315 530 60 530C76.5685 530 90 543.431 90 560C90 576.569 76.5685 590 60 590C43.4315 590 30 576.569 30 560Z" fill="#F1F7F0"/>
<g filter="url(#filter13_d_4519_331)">
<circle cx="60" cy="560" r="7.5" stroke="#116D5C" stroke-width="5" shape-rendering="crispEdges"/>
</g>
<g filter="url(#filter14_d_4519_331)">
<path d="M81.7178 558.917C82.0934 559.416 82.2812 559.666 82.2812 560C82.2812 560.334 82.0934 560.584 81.7178 561.083C79.1248 564.526 70.3839 575 60 575C49.6161 575 40.8752 564.526 38.2822 561.083C37.9066 560.584 37.7188 560.334 37.7188 560C37.7188 559.666 37.9066 559.416 38.2822 558.917C40.8752 555.474 49.6161 545 60 545C70.3839 545 79.1248 555.474 81.7178 558.917Z" stroke="#116D5C" stroke-width="5"/>
</g>
<rect width="120" height="20" transform="translate(0 600)" fill="#F1F7F0"/>
<path d="M10 600C4.47715 600 0 604.477 0 610C0 615.523 4.47715 620 10 620H0V600H10Z" fill="#00A086"/>
<rect width="120" height="80" transform="translate(0 620)" fill="#F1F7F0"/>
<path d="M0 620H60C82.0914 620 100 637.909 100 660V660C100 682.091 82.0914 700 60 700H0V620Z" fill="#00A086"/>
<path d="M30 660C30 643.431 43.4315 630 60 630C76.5685 630 90 643.431 90 660C90 676.569 76.5685 690 60 690C43.4315 690 30 676.569 30 660Z" fill="#F1F7F0"/>
<g filter="url(#filter15_d_4519_331)">
<path d="M64.7656 635.259L66.4433 633.405L66.443 633.405L64.7656 635.259ZM65.1797 636.801L62.6921 637.049L62.6921 637.049L65.1797 636.801ZM65.6699 641.704L68.1575 641.456L68.1575 641.455L65.6699 641.704ZM66.4668 644.384L65.5094 646.693L65.5098 646.693L66.4668 644.384ZM68.9258 643.054L70.5086 644.989L70.5087 644.989L68.9258 643.054ZM72.7412 639.933L71.1583 637.998L71.1583 637.998L72.7412 639.933ZM74.124 639.136L74.2486 636.639L74.248 636.639L74.124 639.136ZM75.4209 640.066L73.6533 641.834L73.6533 641.834L75.4209 640.066ZM79.9326 644.577L81.7003 642.809L81.7002 642.809L79.9326 644.577ZM80.8643 645.875L83.3612 645.751L83.3611 645.75L80.8643 645.875ZM80.0664 647.259L78.1315 645.676L78.1315 645.676L80.0664 647.259ZM76.9463 651.072L78.8812 652.655L78.8812 652.655L76.9463 651.072ZM75.6152 653.531L73.3055 654.488L73.3055 654.488L75.6152 653.531ZM78.2949 654.329L78.5441 651.842L78.5438 651.842L78.2949 654.329ZM83.1992 654.82L82.9501 657.308L82.9503 657.308L83.1992 654.82ZM84.7412 655.234L86.5952 653.557L86.5949 653.557L84.7412 655.234ZM85 656.81H87.5H85ZM85 663.19H87.5H85ZM84.7412 664.766L86.5948 666.443L86.5951 666.443L84.7412 664.766ZM83.1992 665.18L82.9506 662.692L82.9505 662.692L83.1992 665.18ZM78.2959 665.67L78.5446 668.158L78.5446 668.158L78.2959 665.67ZM75.6162 666.468L73.3066 665.511L73.3065 665.511L75.6162 666.468ZM76.9473 668.927L78.8824 667.344L78.8822 667.344L76.9473 668.927ZM80.0664 672.74L78.1313 674.323L78.1315 674.323L80.0664 672.74ZM80.8643 674.123L83.3612 674.247L83.3612 674.247L80.8643 674.123ZM79.9336 675.421L81.7012 677.189L81.7015 677.189L79.9336 675.421ZM75.4219 679.932L73.6543 678.164L73.654 678.164L75.4219 679.932ZM74.125 680.863L74.2491 683.36L74.2497 683.36L74.125 680.863ZM72.7412 680.065L71.1581 682L71.1582 682L72.7412 680.065ZM68.9268 676.944L70.5099 675.009L70.5098 675.009L68.9268 676.944ZM66.4678 675.614L65.5109 673.305L65.5108 673.305L66.4678 675.614ZM65.6699 678.294L63.1823 678.045L63.1823 678.045L65.6699 678.294ZM65.1797 683.199L67.6673 683.448V683.448L65.1797 683.199ZM64.7656 684.741L66.4429 686.595L66.4432 686.595L64.7656 684.741ZM56.8096 685V687.5V685ZM55.2344 684.741L53.557 686.595L53.5574 686.595L55.2344 684.741ZM54.8193 683.199L57.3069 682.95L57.3069 682.95L54.8193 683.199ZM54.3281 678.295L51.8406 678.544L51.8406 678.544L54.3281 678.295ZM53.5303 675.615L54.4867 673.305L54.4864 673.305L53.5303 675.615ZM51.0723 676.946L52.6551 678.881L52.6555 678.881L51.0723 676.946ZM47.2578 680.066L45.675 678.131L45.6746 678.132L47.2578 680.066ZM45.875 680.864L45.7506 683.361L45.7512 683.361L45.875 680.864ZM44.5771 679.933L42.8094 681.7L44.5771 679.933ZM40.0664 675.422L38.2986 677.19L40.0664 675.422ZM39.1357 674.125L36.6388 674.249L36.6389 674.25L39.1357 674.125ZM39.9326 672.742L37.9976 671.159L37.9975 671.159L39.9326 672.742ZM43.0537 668.927L44.9888 670.51L44.9888 670.51L43.0537 668.927ZM44.3838 666.468L46.6934 665.511L46.6933 665.511L44.3838 666.468ZM41.7041 665.67L41.4554 668.158L41.4554 668.158L41.7041 665.67ZM36.8008 665.18L37.0495 662.692L37.0494 662.692L36.8008 665.18ZM35.2588 664.766L33.4049 666.443L33.4052 666.443L35.2588 664.766ZM35 663.19H32.5H35ZM35 656.81H32.5H35ZM35.2588 655.234L33.4051 653.557L33.4048 653.557L35.2588 655.234ZM36.8008 654.82L37.0497 657.308L37.0499 657.308L36.8008 654.82ZM41.7061 654.329L41.4572 651.842L41.457 651.842L41.7061 654.329ZM44.3848 653.531L46.6945 654.488L46.6945 654.488L44.3848 653.531ZM43.0547 651.072L41.1196 652.655L41.1197 652.655L43.0547 651.072ZM39.9336 647.257L41.8686 645.674L41.8686 645.674L39.9336 647.257ZM39.1357 645.874L36.6388 645.749L36.6388 645.75L39.1357 645.874ZM40.0674 644.576L38.2996 642.808L40.0674 644.576ZM44.5781 640.065L42.8104 638.298V638.298L44.5781 640.065ZM45.875 639.135L45.751 636.638L45.7504 636.638L45.875 639.135ZM47.2578 639.932L48.841 637.997L48.8408 637.997L47.2578 639.932ZM51.0723 643.053L49.4891 644.988L49.4893 644.988L51.0723 643.053ZM53.5312 644.383L54.4879 646.693L54.488 646.693L53.5312 644.383ZM54.3291 641.704L56.8167 641.953L56.8167 641.953L54.3291 641.704ZM54.8193 636.801L52.3318 636.552L52.3317 636.552L54.8193 636.801ZM55.2344 635.259L53.5573 633.405L53.5569 633.405L55.2344 635.259ZM56.8096 635V632.5V635ZM63.1895 635V637.5C63.4133 637.5 63.5683 637.5 63.6972 637.503C63.7582 637.505 63.802 637.507 63.8334 637.509C63.8649 637.511 63.8762 637.512 63.8729 637.512C63.8715 637.512 63.7685 637.499 63.6171 637.441C63.5383 637.41 63.4487 637.368 63.3543 637.311C63.2593 637.253 63.1699 637.186 63.0882 637.113L64.7656 635.259L66.443 633.405C65.7765 632.802 65.0315 632.62 64.5131 632.553C64.0653 632.495 63.5532 632.5 63.1895 632.5V635ZM64.7656 635.259L63.088 637.112C63.0064 637.038 62.9312 636.956 62.8643 636.867C62.798 636.779 62.7472 636.694 62.7089 636.619C62.6354 636.474 62.6128 636.372 62.6124 636.371C62.6116 636.368 62.6143 636.379 62.6194 636.41C62.6245 636.441 62.6308 636.484 62.6383 636.545C62.6543 636.672 62.6698 636.827 62.6921 637.049L65.1797 636.801L67.6673 636.552C67.6312 636.191 67.5851 635.681 67.483 635.241C67.3648 634.731 67.1096 634.008 66.4433 633.405L64.7656 635.259ZM65.1797 636.801L62.6921 637.049L63.1823 641.953L65.6699 641.704L68.1575 641.455L67.6673 636.552L65.1797 636.801ZM65.6699 641.704L63.1823 641.953C63.2554 642.684 63.3321 643.52 63.4975 644.179C63.6638 644.842 64.1068 646.112 65.5094 646.693L66.4668 644.384L67.4242 642.074C67.5941 642.145 67.7588 642.244 67.9066 642.371C68.052 642.495 68.1549 642.624 68.2243 642.73C68.3498 642.922 68.368 643.045 68.347 642.962C68.3285 642.888 68.3006 642.741 68.2658 642.466C68.2316 642.196 68.1993 641.874 68.1575 641.456L65.6699 641.704ZM66.4668 644.384L65.5098 646.693C66.9119 647.274 68.1233 646.691 68.7098 646.34C69.2934 645.991 69.939 645.455 70.5086 644.989L68.9258 643.054L67.3429 641.119C67.0176 641.385 66.7674 641.589 66.5521 641.756C66.3329 641.926 66.2095 642.01 66.1444 642.049C66.0706 642.093 66.171 642.018 66.3954 641.971C66.5195 641.945 66.6827 641.928 66.8735 641.943C67.0674 641.958 67.254 642.004 67.4238 642.074L66.4668 644.384ZM68.9258 643.054L70.5087 644.989L74.3241 641.868L72.7412 639.933L71.1583 637.998L67.3429 641.119L68.9258 643.054ZM72.7412 639.933L74.3241 641.868C74.4971 641.726 74.6171 641.628 74.7187 641.549C74.7668 641.512 74.8018 641.486 74.8273 641.467C74.8529 641.449 74.8626 641.443 74.8596 641.445C74.8583 641.446 74.7706 641.501 74.6163 641.552C74.536 641.578 74.4401 641.602 74.3309 641.618C74.221 641.633 74.1098 641.638 74 641.633L74.124 639.136L74.248 636.639C73.3512 636.594 72.66 636.924 72.2162 637.201C71.8329 637.44 71.4398 637.767 71.1583 637.998L72.7412 639.933ZM74.124 639.136L73.9994 641.633C73.8896 641.627 73.7794 641.611 73.6716 641.585C73.5644 641.559 73.4713 641.525 73.394 641.491C73.2454 641.425 73.1636 641.361 73.1624 641.36C73.1596 641.358 73.1687 641.365 73.1923 641.386C73.2158 641.407 73.2481 641.436 73.2922 641.478C73.3855 641.567 73.4951 641.676 73.6533 641.834L75.4209 640.066L77.1885 638.299C76.9314 638.041 76.5727 637.676 76.2151 637.4C75.8009 637.081 75.1457 636.684 74.2486 636.639L74.124 639.136ZM75.4209 640.066L73.6533 641.834L78.165 646.345L79.9326 644.577L81.7002 642.809L77.1885 638.298L75.4209 640.066ZM79.9326 644.577L78.165 646.345C78.3232 646.503 78.4326 646.613 78.5215 646.706C78.5635 646.75 78.5931 646.783 78.6139 646.806C78.6347 646.83 78.6417 646.839 78.6396 646.836C78.6388 646.835 78.5748 646.754 78.5092 646.605C78.4751 646.528 78.4415 646.435 78.4153 646.328C78.3889 646.22 78.3729 646.11 78.3674 646L80.8643 645.875L83.3611 645.75C83.3164 644.853 82.9184 644.197 82.5991 643.783C82.3232 643.425 81.9577 643.067 81.7003 642.809L79.9326 644.577ZM80.8643 645.875L78.3673 645.999C78.3619 645.889 78.3669 645.778 78.3824 645.668C78.3979 645.558 78.4221 645.462 78.4483 645.382C78.4988 645.228 78.5544 645.14 78.5551 645.139C78.5568 645.136 78.5509 645.146 78.5324 645.172C78.5141 645.197 78.4879 645.233 78.4504 645.281C78.3712 645.382 78.2732 645.502 78.1315 645.676L80.0664 647.259L82.0013 648.842C82.2317 648.56 82.5596 648.167 82.7984 647.784C83.0748 647.34 83.4058 646.649 83.3612 645.751L80.8643 645.875ZM80.0664 647.259L78.1315 645.676L75.0114 649.489L76.9463 651.072L78.8812 652.655L82.0013 648.842L80.0664 647.259ZM76.9463 651.072L75.0114 649.489C74.5455 650.059 74.0087 650.704 73.6597 651.287C73.3092 651.873 72.7245 653.085 73.3055 654.488L75.6152 653.531L77.925 652.575C77.9954 652.745 78.0415 652.932 78.0566 653.126C78.0714 653.316 78.0535 653.48 78.0276 653.604C77.9807 653.828 77.9062 653.928 77.9504 653.854C77.9895 653.789 78.0734 653.666 78.2434 653.446C78.4104 653.231 78.6149 652.981 78.8812 652.655L76.9463 651.072ZM75.6152 653.531L73.3055 654.488C73.8864 655.891 75.1562 656.334 75.8186 656.501C76.4779 656.667 77.3139 656.743 78.046 656.817L78.2949 654.329L78.5438 651.842C78.1255 651.8 77.804 651.767 77.5336 651.733C77.2584 651.698 77.1118 651.67 77.0381 651.652C76.9546 651.631 77.0783 651.649 77.2701 651.774C77.3762 651.844 77.5042 651.947 77.6287 652.092C77.7552 652.24 77.8546 652.405 77.925 652.575L75.6152 653.531ZM78.2949 654.329L78.0458 656.817L82.9501 657.308L83.1992 654.82L83.4484 652.333L78.5441 651.842L78.2949 654.329ZM83.1992 654.82L82.9503 657.308C83.1732 657.33 83.3274 657.346 83.4554 657.362C83.516 657.369 83.5594 657.376 83.5904 657.381C83.6216 657.386 83.6327 657.388 83.6293 657.388C83.6279 657.387 83.5265 657.365 83.3814 657.291C83.3059 657.253 83.2209 657.202 83.1326 657.136C83.0438 657.069 82.9614 656.993 82.8875 656.912L84.7412 655.234L86.5949 653.557C85.9916 652.89 85.2683 652.635 84.759 652.517C84.3195 652.415 83.8094 652.369 83.4481 652.333L83.1992 654.82ZM84.7412 655.234L82.8872 656.912C82.8135 656.83 82.7469 656.741 82.6893 656.646C82.6321 656.552 82.59 656.462 82.5595 656.383C82.5008 656.232 82.4883 656.129 82.4881 656.127C82.4877 656.124 82.4893 656.135 82.4912 656.166C82.4932 656.198 82.4952 656.241 82.4967 656.302C82.4998 656.431 82.5 656.586 82.5 656.81H85H87.5C87.5 656.446 87.5048 655.934 87.4469 655.486C87.3798 654.967 87.1977 654.223 86.5952 653.557L84.7412 655.234ZM85 656.81H82.5V663.19H85H87.5V656.81H85ZM85 663.19H82.5C82.5 663.414 82.4998 663.569 82.4967 663.698C82.4952 663.759 82.4932 663.802 82.4912 663.834C82.4893 663.865 82.4877 663.876 82.4881 663.873C82.4883 663.871 82.5008 663.768 82.5595 663.617C82.59 663.538 82.6321 663.448 82.6894 663.354C82.747 663.259 82.8136 663.17 82.8873 663.088L84.7412 664.766L86.5951 666.443C87.1977 665.777 87.3799 665.032 87.4469 664.514C87.5048 664.066 87.5 663.554 87.5 663.19H85ZM84.7412 664.766L82.8876 663.088C82.9615 663.006 83.0438 662.931 83.1326 662.864C83.2208 662.798 83.3059 662.747 83.3814 662.709C83.5264 662.635 83.6278 662.613 83.6292 662.612C83.6326 662.612 83.6215 662.614 83.5904 662.619C83.5593 662.624 83.516 662.631 83.4555 662.638C83.3275 662.654 83.1733 662.67 82.9506 662.692L83.1992 665.18L83.4479 667.667C83.8094 667.631 84.3194 667.585 84.7591 667.483C85.2684 667.365 85.9916 667.11 86.5948 666.443L84.7412 664.766ZM83.1992 665.18L82.9505 662.692L78.0472 663.182L78.2959 665.67L78.5446 668.158L83.4479 667.667L83.1992 665.18ZM78.2959 665.67L78.0472 663.182C77.3149 663.256 76.4789 663.332 75.8195 663.498C75.1568 663.665 73.8875 664.109 73.3066 665.511L75.6162 666.468L77.9259 667.425C77.8555 667.594 77.7561 667.759 77.6297 667.907C77.5053 668.052 77.3773 668.155 77.2712 668.224C77.0795 668.35 76.9558 668.368 77.0392 668.347C77.1128 668.329 77.2594 668.301 77.5345 668.266C77.8048 668.232 78.1263 668.199 78.5446 668.158L78.2959 665.67ZM75.6162 666.468L73.3065 665.511C72.7254 666.914 73.3101 668.126 73.6607 668.712C74.0097 669.295 74.5465 669.94 75.0124 670.51L76.9473 668.927L78.8822 667.344C78.6159 667.018 78.4114 666.768 78.2443 666.553C78.0743 666.333 77.9904 666.21 77.9513 666.145C77.9071 666.071 77.9817 666.171 78.0286 666.395C78.0545 666.519 78.0723 666.683 78.0575 666.874C78.0424 667.068 77.9963 667.255 77.9259 667.425L75.6162 666.468ZM76.9473 668.927L75.0121 670.51L78.1313 674.323L80.0664 672.74L82.0015 671.157L78.8824 667.344L76.9473 668.927ZM80.0664 672.74L78.1315 674.323C78.2734 674.497 78.3715 674.617 78.4508 674.719C78.4884 674.767 78.5146 674.802 78.533 674.828C78.5515 674.853 78.5575 674.863 78.5557 674.86C78.555 674.859 78.4992 674.771 78.4486 674.617C78.4222 674.537 78.398 674.44 78.3825 674.331C78.3669 674.221 78.3619 674.109 78.3673 673.999L80.8643 674.123L83.3612 674.247C83.4057 673.349 83.0743 672.657 82.7977 672.214C82.5591 671.831 82.231 671.438 82.0013 671.157L80.0664 672.74ZM80.8643 674.123L78.3674 673.999C78.3728 673.889 78.3888 673.779 78.4151 673.671C78.4412 673.564 78.4746 673.472 78.5086 673.394C78.574 673.246 78.6379 673.164 78.6389 673.163C78.6411 673.16 78.6343 673.169 78.6135 673.193C78.5928 673.216 78.5634 673.249 78.5215 673.293C78.4329 673.386 78.3236 673.495 78.1657 673.653L79.9336 675.421L81.7015 677.189C81.9594 676.931 82.3247 676.572 82.6007 676.213C82.92 675.799 83.3165 675.144 83.3612 674.247L80.8643 674.123ZM79.9336 675.421L78.166 673.653L73.6543 678.164L75.4219 679.932L77.1894 681.7L81.7012 677.189L79.9336 675.421ZM75.4219 679.932L73.654 678.164C73.4955 678.322 73.3858 678.432 73.2923 678.521C73.2481 678.563 73.2157 678.593 73.1921 678.614C73.1684 678.635 73.1593 678.642 73.1619 678.639C73.163 678.639 73.2448 678.574 73.3936 678.509C73.471 678.474 73.5643 678.441 73.6716 678.414C73.7797 678.388 73.8903 678.372 74.0003 678.366L74.125 680.863L74.2497 683.36C75.1482 683.315 75.8038 682.917 76.2174 682.597C76.5745 682.322 76.9331 681.956 77.1898 681.699L75.4219 679.932ZM74.125 680.863L74.0009 678.366C74.1109 678.361 74.2224 678.366 74.3325 678.381C74.4417 678.397 74.5377 678.421 74.618 678.447C74.7722 678.498 74.8597 678.553 74.8608 678.554C74.8637 678.556 74.8538 678.55 74.8282 678.531C74.8026 678.513 74.7675 678.487 74.7193 678.449C74.6175 678.37 74.4974 678.272 74.3242 678.13L72.7412 680.065L71.1582 682C71.4397 682.231 71.833 682.559 72.2161 682.797C72.6594 683.074 73.3512 683.405 74.2491 683.36L74.125 680.863ZM72.7412 680.065L74.3244 678.131L70.5099 675.009L68.9268 676.944L67.3436 678.879L71.1581 682L72.7412 680.065ZM68.9268 676.944L70.5098 675.009C69.94 674.543 69.2945 674.007 68.7107 673.658C68.1241 673.307 66.9129 672.724 65.5109 673.305L66.4678 675.614L67.4246 677.924C67.2549 677.994 67.0683 678.04 66.8745 678.055C66.6837 678.07 66.5205 678.053 66.3965 678.027C66.1721 677.98 66.0717 677.905 66.1455 677.95C66.2106 677.988 66.3339 678.072 66.553 678.242C66.7684 678.409 67.0185 678.613 67.3438 678.879L68.9268 676.944ZM66.4678 675.614L65.5108 673.305C64.1087 673.886 63.665 675.155 63.4983 675.818C63.3324 676.477 63.2555 677.313 63.1823 678.045L65.6699 678.294L68.1575 678.543C68.1993 678.124 68.2316 677.803 68.2659 677.533C68.3008 677.257 68.3287 677.111 68.3472 677.037C68.3682 676.954 68.35 677.078 68.2245 677.269C68.1551 677.375 68.0522 677.503 67.9069 677.628C67.7591 677.754 67.5945 677.853 67.4248 677.924L66.4678 675.614ZM65.6699 678.294L63.1823 678.045L62.6921 682.951L65.1797 683.199L67.6673 683.448L68.1575 678.543L65.6699 678.294ZM65.1797 683.199L62.6921 682.951C62.6698 683.173 62.6542 683.328 62.6383 683.455C62.6307 683.516 62.6245 683.559 62.6194 683.59C62.6143 683.621 62.6116 683.633 62.6124 683.629C62.6127 683.628 62.6354 683.526 62.7089 683.381C62.7471 683.306 62.7979 683.221 62.8643 683.133C62.9312 683.044 63.0065 682.961 63.0881 682.888L64.7656 684.741L66.4432 686.595C67.1097 685.992 67.3649 685.268 67.483 684.759C67.585 684.319 67.6312 683.809 67.6673 683.448L65.1797 683.199ZM64.7656 684.741L63.0883 682.887C63.17 682.813 63.2594 682.747 63.3544 682.689C63.4488 682.632 63.5383 682.59 63.6171 682.559C63.7685 682.501 63.8715 682.488 63.8728 682.488C63.8762 682.488 63.8648 682.489 63.8333 682.491C63.8019 682.493 63.7581 682.495 63.6971 682.497C63.5682 682.5 63.4132 682.5 63.1895 682.5V685V687.5C63.5532 687.5 64.0653 687.505 64.5131 687.447C65.0314 687.38 65.7764 687.198 66.4429 686.595L64.7656 684.741ZM63.1895 685V682.5H56.8096V685V687.5H63.1895V685ZM56.8096 685V682.5C56.5859 682.5 56.431 682.5 56.3023 682.497C56.2414 682.495 56.1977 682.493 56.1664 682.491C56.135 682.489 56.1237 682.488 56.1272 682.488C56.1287 682.488 56.2318 682.501 56.3832 682.559C56.462 682.59 56.5515 682.632 56.6458 682.689C56.7407 682.747 56.8299 682.813 56.9114 682.887L55.2344 684.741L53.5574 686.595C54.2233 687.198 54.9674 687.38 55.4861 687.447C55.9339 687.505 56.4459 687.5 56.8096 687.5V685ZM55.2344 684.741L56.9118 682.887C56.9932 682.961 57.0683 683.043 57.1349 683.132C57.2012 683.22 57.2519 683.304 57.2902 683.38C57.3636 683.524 57.3863 683.626 57.3867 683.627C57.3875 683.631 57.3848 683.62 57.3797 683.589C57.3746 683.558 57.3683 683.514 57.3608 683.454C57.3448 683.326 57.3292 683.172 57.3069 682.95L54.8193 683.199L52.3318 683.448C52.3681 683.811 52.4145 684.321 52.517 684.761C52.6357 685.271 52.8915 685.993 53.557 686.595L55.2344 684.741ZM54.8193 683.199L57.3069 682.95L56.8157 678.046L54.3281 678.295L51.8406 678.544L52.3318 683.448L54.8193 683.199ZM54.3281 678.295L56.8157 678.046C56.7424 677.314 56.6654 676.478 56.4997 675.819C56.3332 675.157 55.8897 673.886 54.4867 673.305L53.5303 675.615L52.5738 677.925C52.4039 677.855 52.2391 677.755 52.0912 677.629C51.9457 677.504 51.8428 677.376 51.7734 677.27C51.6478 677.078 51.6296 676.954 51.6506 677.038C51.6692 677.112 51.6972 677.258 51.732 677.534C51.7663 677.804 51.7987 678.126 51.8406 678.544L54.3281 678.295ZM53.5303 675.615L54.4864 673.305C53.0835 672.725 51.8722 673.309 51.2863 673.66C50.7034 674.009 50.0581 674.546 49.489 675.012L51.0723 676.946L52.6555 678.881C52.981 678.615 53.231 678.41 53.4465 678.243C53.6658 678.073 53.7891 677.989 53.8544 677.95C53.9282 677.906 53.8278 677.981 53.6033 678.028C53.4792 678.054 53.3158 678.071 53.1249 678.057C52.9308 678.042 52.744 677.995 52.5742 677.925L53.5303 675.615ZM51.0723 676.946L49.4894 675.011L45.675 678.131L47.2578 680.066L48.8407 682.001L52.6551 678.881L51.0723 676.946ZM47.2578 680.066L45.6746 678.132C45.5012 678.273 45.3812 678.372 45.2793 678.451C45.2311 678.488 45.196 678.515 45.1704 678.533C45.1447 678.551 45.1349 678.557 45.1378 678.556C45.139 678.555 45.2267 678.499 45.3812 678.449C45.4616 678.422 45.5577 678.398 45.6671 678.382C45.7772 678.367 45.8888 678.362 45.9988 678.367L45.875 680.864L45.7512 683.361C46.6494 683.406 47.3411 683.074 47.7844 682.798C48.167 682.559 48.5602 682.231 48.841 682.001L47.2578 680.066ZM45.875 680.864L45.9994 678.367C46.1095 678.373 46.2199 678.389 46.3278 678.415C46.435 678.442 46.5281 678.475 46.6054 678.509C46.7539 678.575 46.8355 678.639 46.8365 678.64C46.8392 678.642 46.8301 678.635 46.8064 678.614C46.7828 678.593 46.7504 678.564 46.7062 678.521C46.6129 678.433 46.5031 678.323 46.3449 678.165L44.5771 679.933L42.8094 681.7C43.0667 681.958 43.4255 682.323 43.7832 682.599C44.1971 682.918 44.8526 683.316 45.7506 683.361L45.875 680.864ZM44.5771 679.933L46.3449 678.165L41.8342 673.654L40.0664 675.422L38.2986 677.19L42.8094 681.7L44.5771 679.933ZM40.0664 675.422L41.8342 673.654C41.6761 673.496 41.5667 673.386 41.478 673.293C41.436 673.249 41.4066 673.217 41.3858 673.193C41.365 673.17 41.3582 673.161 41.3603 673.163C41.3613 673.165 41.4254 673.246 41.4909 673.395C41.5251 673.472 41.5586 673.565 41.5848 673.673C41.6111 673.78 41.6272 673.891 41.6326 674L39.1357 674.125L36.6389 674.25C36.6836 675.147 37.0809 675.802 37.4003 676.216C37.6761 676.574 38.0414 676.932 38.2986 677.19L40.0664 675.422ZM39.1357 674.125L41.6327 674.001C41.6381 674.111 41.6331 674.222 41.6176 674.332C41.6022 674.441 41.5781 674.537 41.5518 674.617C41.5014 674.772 41.4458 674.859 41.4449 674.861C41.4431 674.864 41.449 674.854 41.4674 674.828C41.4857 674.803 41.5118 674.768 41.5492 674.72C41.6282 674.618 41.7261 674.498 41.8677 674.325L39.9326 672.742L37.9975 671.159C37.7674 671.441 37.4396 671.834 37.2009 672.217C36.9244 672.661 36.5942 673.352 36.6388 674.249L39.1357 674.125ZM39.9326 672.742L41.8677 674.325L44.9888 670.51L43.0537 668.927L41.1187 667.344L37.9976 671.159L39.9326 672.742ZM43.0537 668.927L44.9888 670.51C45.4548 669.94 45.9914 669.294 46.3402 668.711C46.6909 668.124 47.2743 666.913 46.6934 665.511L44.3838 666.468L42.0742 667.425C42.0038 667.255 41.9577 667.068 41.9426 666.874C41.9277 666.684 41.9455 666.52 41.9713 666.396C42.0181 666.172 42.0926 666.072 42.0485 666.145C42.0096 666.211 41.9258 666.334 41.756 666.553C41.5891 666.768 41.3848 667.019 41.1186 667.344L43.0537 668.927ZM44.3838 666.468L46.6933 665.511C46.1123 664.109 44.8429 663.665 44.1805 663.498C43.521 663.332 42.6851 663.256 41.9528 663.182L41.7041 665.67L41.4554 668.158C41.8736 668.199 42.195 668.232 42.4653 668.266C42.7404 668.301 42.887 668.329 42.9606 668.347C43.0441 668.368 42.9206 668.35 42.7289 668.225C42.6229 668.155 42.4949 668.052 42.3705 667.907C42.2441 667.759 42.1447 667.595 42.0743 667.425L44.3838 666.468ZM41.7041 665.67L41.9528 663.182L37.0495 662.692L36.8008 665.18L36.5521 667.667L41.4554 668.158L41.7041 665.67ZM36.8008 665.18L37.0494 662.692C36.8267 662.67 36.6725 662.654 36.5445 662.638C36.484 662.631 36.4407 662.624 36.4096 662.619C36.3785 662.614 36.3674 662.612 36.3708 662.612C36.3722 662.613 36.4736 662.635 36.6186 662.709C36.6941 662.747 36.7792 662.798 36.8674 662.864C36.9562 662.931 37.0385 663.006 37.1124 663.088L35.2588 664.766L33.4052 666.443C34.0084 667.11 34.7316 667.365 35.2409 667.483C35.6806 667.585 36.1906 667.631 36.5521 667.667L36.8008 665.18ZM35.2588 664.766L37.1127 663.088C37.1864 663.17 37.253 663.259 37.3106 663.354C37.3679 663.448 37.41 663.538 37.4405 663.617C37.4992 663.768 37.5117 663.871 37.5119 663.873C37.5123 663.876 37.5107 663.865 37.5088 663.834C37.5068 663.802 37.5048 663.759 37.5033 663.698C37.5002 663.569 37.5 663.414 37.5 663.19H35H32.5C32.5 663.554 32.4952 664.066 32.5531 664.514C32.6201 665.032 32.8023 665.777 33.4049 666.443L35.2588 664.766ZM35 663.19H37.5V656.81H35H32.5V663.19H35ZM35 656.81H37.5C37.5 656.586 37.5002 656.431 37.5033 656.302C37.5048 656.241 37.5068 656.198 37.5088 656.166C37.5108 656.135 37.5123 656.124 37.5119 656.127C37.5117 656.129 37.4992 656.232 37.4405 656.383C37.41 656.462 37.3679 656.552 37.3107 656.646C37.2531 656.741 37.1865 656.83 37.1128 656.912L35.2588 655.234L33.4048 653.557C32.8023 654.223 32.6202 654.967 32.5531 655.486C32.4952 655.934 32.5 656.446 32.5 656.81H35ZM35.2588 655.234L37.1125 656.912C37.0386 656.993 36.9562 657.069 36.8674 657.136C36.7791 657.202 36.6941 657.253 36.6186 657.291C36.4735 657.365 36.3721 657.387 36.3707 657.388C36.3673 657.388 36.3784 657.386 36.4096 657.381C36.4406 657.376 36.484 657.369 36.5446 657.362C36.6726 657.346 36.8268 657.33 37.0497 657.308L36.8008 654.82L36.5519 652.333C36.1906 652.369 35.6805 652.415 35.241 652.517C34.7317 652.635 34.0084 652.89 33.4051 653.557L35.2588 655.234ZM36.8008 654.82L37.0499 657.308L41.9552 656.817L41.7061 654.329L41.457 651.842L36.5517 652.333L36.8008 654.82ZM41.7061 654.329L41.9549 656.817C42.687 656.743 43.5228 656.666 44.182 656.501C44.8448 656.334 46.1137 655.89 46.6945 654.488L44.3848 653.531L42.0751 652.575C42.1454 652.405 42.2447 652.24 42.3711 652.093C42.4955 651.947 42.6235 651.844 42.7295 651.775C42.9214 651.649 43.0452 651.631 42.9619 651.652C42.8884 651.67 42.742 651.698 42.4669 651.733C42.1967 651.767 41.8754 651.8 41.4572 651.842L41.7061 654.329ZM44.3848 653.531L46.6945 654.488C47.2751 653.086 46.6919 651.875 46.3413 651.288C45.9924 650.705 45.4558 650.059 44.9897 649.489L43.0547 651.072L41.1197 652.655C41.3858 652.981 41.5902 653.231 41.757 653.446C41.9268 653.665 42.0106 653.788 42.0495 653.854C42.0935 653.927 42.019 653.827 41.9723 653.603C41.9464 653.479 41.9287 653.315 41.9436 653.125C41.9587 652.931 42.0048 652.744 42.0751 652.575L44.3848 653.531ZM43.0547 651.072L44.9897 649.489L41.8686 645.674L39.9336 647.257L37.9985 648.84L41.1196 652.655L43.0547 651.072ZM39.9336 647.257L41.8686 645.674C41.7266 645.5 41.6286 645.38 41.5492 645.278C41.5116 645.23 41.4854 645.195 41.467 645.169C41.4485 645.144 41.4425 645.134 41.4443 645.137C41.445 645.138 41.5007 645.226 41.5514 645.38C41.5778 645.461 41.602 645.557 41.6175 645.666C41.6331 645.776 41.6381 645.888 41.6327 645.998L39.1357 645.874L36.6388 645.75C36.5942 646.648 36.9258 647.34 37.2023 647.784C37.4409 648.166 37.769 648.559 37.9986 648.84L39.9336 647.257ZM39.1357 645.874L41.6326 645.999C41.6271 646.109 41.6111 646.219 41.5847 646.327C41.5584 646.434 41.5248 646.527 41.4907 646.605C41.4252 646.753 41.3612 646.834 41.3604 646.836C41.3584 646.838 41.3653 646.829 41.3862 646.805C41.407 646.782 41.4366 646.749 41.4786 646.705C41.5675 646.612 41.677 646.502 41.8351 646.344L40.0674 644.576L38.2996 642.808C38.0423 643.066 37.6768 643.425 37.4009 643.782C37.0819 644.196 36.6837 644.852 36.6388 645.749L39.1357 645.874ZM40.0674 644.576L41.8351 646.344L46.3459 641.833L44.5781 640.065L42.8104 638.298L38.2996 642.808L40.0674 644.576ZM44.5781 640.065L46.3459 641.833C46.504 641.675 46.6136 641.566 46.7068 641.477C46.7509 641.435 46.7831 641.406 46.8067 641.385C46.8303 641.364 46.8393 641.357 46.8365 641.359C46.8353 641.36 46.7535 641.424 46.605 641.49C46.5276 641.524 46.4346 641.558 46.3274 641.584C46.2196 641.61 46.1094 641.626 45.9996 641.632L45.875 639.135L45.7504 636.638C44.8534 636.683 44.1982 637.08 43.784 637.399C43.4262 637.675 43.0676 638.04 42.8104 638.298L44.5781 640.065ZM45.875 639.135L45.999 641.632C45.8893 641.637 45.778 641.632 45.6682 641.617C45.559 641.601 45.4631 641.577 45.3828 641.551C45.2285 641.5 45.1408 641.445 45.1395 641.444C45.1365 641.442 45.1462 641.448 45.1718 641.466C45.1972 641.485 45.2322 641.511 45.2803 641.548C45.3819 641.627 45.5018 641.725 45.6748 641.867L47.2578 639.932L48.8408 637.997C48.5593 637.766 48.1661 637.439 47.7828 637.2C47.339 636.923 46.6478 636.593 45.751 636.638L45.875 639.135ZM47.2578 639.932L45.6747 641.866L49.4891 644.988L51.0723 643.053L52.6554 641.118L48.841 637.997L47.2578 639.932ZM51.0723 643.053L49.4893 644.988C50.059 645.454 50.7045 645.99 51.2883 646.339C51.8749 646.69 53.086 647.273 54.4879 646.693L53.5312 644.383L52.5746 642.073C52.7443 642.003 52.9309 641.957 53.1247 641.942C53.3154 641.927 53.4786 641.944 53.6026 641.97C53.827 642.017 53.9273 642.092 53.8535 642.048C53.7884 642.009 53.6651 641.925 53.4459 641.755C53.2306 641.588 52.9805 641.384 52.6552 641.118L51.0723 643.053ZM53.5312 644.383L54.488 646.693C55.89 646.112 56.3338 644.843 56.5006 644.18C56.6665 643.521 56.7434 642.685 56.8167 641.953L54.3291 641.704L51.8415 641.455C51.7997 641.873 51.7673 642.195 51.7331 642.465C51.6982 642.74 51.6703 642.886 51.6518 642.96C51.6308 643.043 51.6491 642.919 51.7748 642.728C51.8442 642.622 51.9471 642.494 52.0925 642.369C52.2403 642.243 52.4049 642.143 52.5745 642.073L53.5312 644.383ZM54.3291 641.704L56.8167 641.953L57.3069 637.049L54.8193 636.801L52.3317 636.552L51.8415 641.455L54.3291 641.704ZM54.8193 636.801L57.3069 637.05C57.3292 636.827 57.3448 636.673 57.3608 636.546C57.3683 636.486 57.3746 636.442 57.3797 636.411C57.3848 636.38 57.3875 636.369 57.3867 636.373C57.3863 636.375 57.3636 636.476 57.2901 636.62C57.2519 636.696 57.2011 636.78 57.1349 636.868C57.0682 636.957 56.9932 637.039 56.9118 637.112L55.2344 635.259L53.5569 633.405C52.8916 634.007 52.6358 634.729 52.517 635.239C52.4144 635.679 52.3681 636.189 52.3318 636.552L54.8193 636.801ZM55.2344 635.259L56.9115 637.113C56.83 637.187 56.7407 637.253 56.6458 637.311C56.5516 637.368 56.462 637.41 56.3832 637.441C56.2318 637.499 56.1287 637.512 56.1272 637.512C56.1237 637.512 56.135 637.511 56.1664 637.509C56.1977 637.507 56.2414 637.505 56.3023 637.503C56.431 637.5 56.5859 637.5 56.8096 637.5V635V632.5C56.4459 632.5 55.934 632.495 55.4861 632.553C54.9675 632.62 54.2233 632.802 53.5573 633.405L55.2344 635.259ZM56.8096 635V637.5H63.1895V635V632.5H56.8096V635ZM60 650V647.5C53.0964 647.5 47.5 653.096 47.5 660H50H52.5C52.5 655.858 55.8579 652.5 60 652.5V650ZM50 660H47.5C47.5 666.904 53.0964 672.5 60 672.5V670V667.5C55.8579 667.5 52.5 664.142 52.5 660H50ZM60 670V672.5C66.9036 672.5 72.5 666.904 72.5 660H70H67.5C67.5 664.142 64.1421 667.5 60 667.5V670ZM70 660H72.5C72.5 653.096 66.9036 647.5 60 647.5V650V652.5C64.1421 652.5 67.5 655.858 67.5 660H70Z" fill="#116D5C"/>
</g>
<rect width="120" height="20" transform="translate(0 700)" fill="#F1F7F0"/>
<path d="M10 700C4.47715 700 0 704.477 0 710V700H10Z" fill="#00A086"/>
<rect width="120" height="160" transform="translate(0 720)" fill="#F1F7F0"/>
<path d="M100 880H20V840C20 817.909 37.9086 800 60 800V800C82.0914 800 100 817.909 100 840V880Z" fill="#00A086"/>
<path d="M30 840C30 823.431 43.4315 810 60 810C76.5685 810 90 823.431 90 840C90 856.569 76.5685 870 60 870C43.4315 870 30 856.569 30 840Z" fill="#F1F7F0"/>
<g filter="url(#filter16_d_4519_331)">
<path d="M42.3223 857.678C45.8186 861.174 50.2732 863.555 55.1227 864.52C59.9723 865.484 64.9989 864.989 69.5671 863.097C74.1352 861.205 78.0397 858 80.7867 853.889C83.5338 849.778 85 844.945 85 840C85 835.055 83.5338 830.222 80.7867 826.111C78.0397 822 74.1352 818.795 69.5671 816.903C64.9989 815.011 59.9723 814.516 55.1227 815.48C50.2732 816.445 45.8186 818.826 42.3223 822.322" stroke="#116D5C" stroke-width="5" stroke-linecap="round"/>
</g>
<g filter="url(#filter17_d_4519_331)">
<path d="M57.5 827.5L67.5 840M67.5 840L57.5 852.5M67.5 840H37.5" stroke="#116D5C" stroke-width="5" stroke-linecap="round"/>
</g>
<rect width="120" height="20" transform="translate(0 880)" fill="#F1F7F0"/>
<path d="M10 900C15.5228 900 20 895.523 20 890V880H100V890C100 895.523 104.477 900 110 900H10Z" fill="#00A086"/>
</g>
<rect width="1320" height="100" transform="translate(120)" fill="#F1F7F0"/>
<path d="M1380 20H1420V10C1420 4.47715 1424.48 0 1430 0H1380V20Z" fill="#00A086"/>
<path d="M1380 20H1340V10C1340 4.47715 1335.52 0 1330 0H1380V20Z" fill="#00A086"/>
<path d="M1280 20H1320V10C1320 4.47715 1324.48 0 1330 0H1280V20Z" fill="#00A086"/>
<path d="M1280 20H1240V10C1240 4.47715 1235.52 0 1230 0H1280V20Z" fill="#00A086"/>
<path d="M523.53 0C518.007 0 513.53 4.47715 513.53 10V0H523.53Z" fill="#00A086"/>
<path d="M513.53 20H433.53V10C433.53 4.47724 429.053 0.000146406 423.53 0H513.53V20Z" fill="#00A086"/>
<g clip-path="url(#clip1_4519_331)">
<path d="M413.531 67.8187C413.531 72.1896 412.545 76.0541 410.573 79.4122C408.654 82.717 406.042 85.3022 402.737 87.1678C399.486 89.0335 395.834 89.9663 391.783 89.9663C387.732 89.9663 384.054 89.0335 380.75 87.1678C377.498 85.3022 374.886 82.717 372.914 79.4122C370.995 76.0541 370.036 72.1896 370.036 67.8187C370.036 63.4478 370.995 59.6099 372.914 56.3051C374.886 52.947 377.498 50.3351 380.75 48.4695C384.054 46.5506 387.732 45.5911 391.783 45.5911C395.834 45.5911 399.486 46.5506 402.737 48.4695C406.042 50.3351 408.654 52.947 410.573 56.3051C412.545 59.6099 413.531 63.4478 413.531 67.8187ZM403.937 67.8187C403.937 65.1002 403.377 62.7548 402.258 60.7826C401.191 58.7571 399.726 57.1846 397.86 56.0653C396.048 54.9459 394.022 54.3862 391.783 54.3862C389.545 54.3862 387.493 54.9459 385.627 56.0653C383.815 57.1846 382.349 58.7571 381.229 60.7826C380.163 62.7548 379.63 65.1002 379.63 67.8187C379.63 70.4839 380.163 72.8292 381.229 74.8547C382.349 76.827 383.815 78.3728 385.627 79.4921C387.493 80.6115 389.545 81.1712 391.783 81.1712C394.022 81.1712 396.048 80.6115 397.86 79.4921C399.726 78.3728 401.191 76.827 402.258 74.8547C403.377 72.8292 403.937 70.4839 403.937 67.8187Z" fill="#116D5C"/>
<path d="M362.324 29.9999C363.71 29.9999 364.856 30.453 365.762 31.3592C366.669 32.2653 367.122 33.438 367.122 34.8772V84.2895C367.122 85.6754 366.669 86.8481 365.762 87.8076C364.856 88.7137 363.71 89.1668 362.324 89.1668C360.938 89.1668 359.792 88.7137 358.886 87.8076C357.98 86.8481 357.527 85.6754 357.527 84.2895V80.3717L359.286 81.0913C359.286 81.7843 358.913 82.6371 358.167 83.6499C357.42 84.6093 356.408 85.5688 355.128 86.5283C353.849 87.4877 352.33 88.3139 350.571 89.0069C348.865 89.6465 347 89.9664 344.974 89.9664C341.296 89.9664 337.965 89.0335 334.98 87.1679C331.995 85.249 329.623 82.6371 327.864 79.3323C326.158 75.9742 325.305 72.1363 325.305 67.8188C325.305 63.4479 326.158 59.61 327.864 56.3052C329.623 52.9471 331.968 50.3352 334.9 48.4696C337.831 46.5507 341.083 45.5912 344.654 45.5912C346.946 45.5912 349.052 45.9377 350.971 46.6306C352.89 47.3236 354.542 48.2031 355.928 49.2691C357.367 50.3352 358.46 51.4279 359.206 52.5473C360.006 53.6134 360.405 54.5195 360.405 55.2658L357.527 56.3052V34.8772C357.527 33.4913 357.98 32.3453 358.886 31.4391C359.792 30.4797 360.938 29.9999 362.324 29.9999ZM346.173 81.1713C348.519 81.1713 350.571 80.5849 352.33 79.4123C354.089 78.2396 355.448 76.6405 356.408 74.615C357.42 72.5894 357.927 70.324 357.927 67.8188C357.927 65.2602 357.42 62.9681 356.408 60.9426C355.448 58.9171 354.089 57.318 352.33 56.1453C350.571 54.9726 348.519 54.3863 346.173 54.3863C343.881 54.3863 341.856 54.9726 340.097 56.1453C338.338 57.318 336.952 58.9171 335.939 60.9426C334.98 62.9681 334.5 65.2602 334.5 67.8188C334.5 70.324 334.98 72.5894 335.939 74.615C336.952 76.6405 338.338 78.2396 340.097 79.4123C341.856 80.5849 343.881 81.1713 346.173 81.1713Z" fill="#116D5C"/>
<path d="M307.111 46.4243C311.056 46.4243 314.041 47.2505 316.066 48.9029C318.145 50.5553 319.558 52.7674 320.304 55.5392C321.103 58.2577 321.503 61.296 321.503 64.6541V85.1227C321.503 86.5085 321.05 87.6812 320.144 88.6407C319.238 89.5468 318.092 89.9999 316.706 89.9999C315.32 89.9999 314.174 89.5468 313.268 88.6407C312.362 87.6812 311.909 86.5085 311.909 85.1227V64.6541C311.909 62.8951 311.669 61.3226 311.189 59.9368C310.763 58.4976 309.963 57.3515 308.79 56.4987C307.618 55.6458 305.939 55.2194 303.753 55.2194C301.621 55.2194 299.809 55.6458 298.316 56.4987C296.877 57.3515 295.758 58.4976 294.958 59.9368C294.212 61.3226 293.839 62.8951 293.839 64.6541V85.1227C293.839 86.5085 293.386 87.6812 292.48 88.6407C291.573 89.5468 290.427 89.9999 289.041 89.9999C287.656 89.9999 286.51 89.5468 285.603 88.6407C284.697 87.6812 284.244 86.5085 284.244 85.1227V52.1011C284.244 50.7152 284.697 49.5692 285.603 48.6631C286.51 47.7036 287.656 47.2239 289.041 47.2239C290.427 47.2239 291.573 47.7036 292.48 48.6631C293.386 49.5692 293.839 50.7152 293.839 52.1011V55.5392L292.639 55.2993C293.119 54.3932 293.812 53.4337 294.718 52.421C295.624 51.3549 296.69 50.3688 297.916 49.4626C299.142 48.5565 300.528 47.8369 302.074 47.3038C303.62 46.7175 305.299 46.4243 307.111 46.4243Z" fill="#116D5C"/>
<path d="M262.002 89.9116C257.471 89.9116 253.526 88.9788 250.168 87.1132C246.863 85.1942 244.305 82.609 242.493 79.3575C240.734 76.106 239.854 72.428 239.854 68.3237C239.854 63.5264 240.813 59.4486 242.732 56.0905C244.705 52.6791 247.263 50.0672 250.408 48.2549C253.553 46.4426 256.884 45.5364 260.402 45.5364C263.121 45.5364 265.679 46.0961 268.078 47.2155C270.53 48.3349 272.689 49.8807 274.554 51.8529C276.42 53.7718 277.886 56.0106 278.952 58.5691C280.071 61.1277 280.631 63.8462 280.631 66.7246C280.578 68.0039 280.071 69.0433 279.112 69.8428C278.152 70.6424 277.033 71.0422 275.754 71.0422H245.211L242.812 63.0466H272.156L270.397 64.6457V62.4869C270.29 60.9411 269.731 59.5553 268.718 58.3293C267.758 57.1033 266.532 56.1438 265.04 55.4509C263.601 54.7046 262.055 54.3315 260.402 54.3315C258.803 54.3315 257.311 54.5447 255.925 54.9712C254.539 55.3976 253.34 56.1172 252.327 57.1299C251.314 58.1427 250.515 59.5019 249.928 61.2077C249.342 62.9134 249.049 65.0722 249.049 67.684C249.049 70.5624 249.635 73.0144 250.808 75.0399C252.034 77.0121 253.58 78.5313 255.445 79.5974C257.364 80.6101 259.39 81.1165 261.522 81.1165C263.494 81.1165 265.066 80.9566 266.239 80.6368C267.412 80.317 268.345 79.9438 269.038 79.5174C269.784 79.0377 270.45 78.6379 271.036 78.3181C271.996 77.8383 272.902 77.5985 273.755 77.5985C274.928 77.5985 275.887 77.9983 276.633 78.7978C277.433 79.5974 277.833 80.5302 277.833 81.5962C277.833 83.0354 277.086 84.3414 275.594 85.5141C274.208 86.6867 272.262 87.7261 269.757 88.6323C267.252 89.4852 264.667 89.9116 262.002 89.9116Z" fill="#116D5C"/>
<path d="M232.754 46.4243C234.14 46.4243 235.286 46.904 236.192 47.8635C237.099 48.7697 237.552 49.9157 237.552 51.3016V71.6102C237.552 77.2604 235.979 81.7379 232.834 85.0427C229.689 88.3475 225.159 89.9999 219.242 89.9999C213.325 89.9999 208.794 88.3475 205.65 85.0427C202.558 81.7379 201.012 77.2604 201.012 71.6102V51.3016C201.012 49.9157 201.465 48.7697 202.371 47.8635C203.278 46.904 204.424 46.4243 205.81 46.4243C207.195 46.4243 208.341 46.904 209.248 47.8635C210.154 48.7697 210.607 49.9157 210.607 51.3016V71.6102C210.607 74.8617 211.326 77.287 212.766 78.8861C214.205 80.4319 216.364 81.2048 219.242 81.2048C222.174 81.2048 224.359 80.4319 225.798 78.8861C227.237 77.287 227.957 74.8617 227.957 71.6102V51.3016C227.957 49.9157 228.41 48.7697 229.316 47.8635C230.222 46.904 231.368 46.4243 232.754 46.4243Z" fill="#116D5C"/>
<path d="M155.784 46.4243C160.049 46.4243 163.194 47.4637 165.219 49.5426C167.245 51.5681 168.577 54.2066 169.217 57.4581L167.858 56.7385L168.497 55.4593C169.137 54.2333 170.123 52.9273 171.456 51.5414C172.788 50.1023 174.387 48.9029 176.253 47.9435C178.172 46.9307 180.304 46.4243 182.649 46.4243C186.487 46.4243 189.392 47.2505 191.364 48.9029C193.39 50.5553 194.776 52.7674 195.522 55.5392C196.268 58.2577 196.642 61.296 196.642 64.6541V85.1227C196.642 86.5085 196.188 87.6812 195.282 88.6407C194.376 89.5468 193.23 89.9999 191.844 89.9999C190.458 89.9999 189.312 89.5468 188.406 88.6407C187.5 87.6812 187.047 86.5085 187.047 85.1227V64.6541C187.047 62.8951 186.834 61.3226 186.407 59.9368C185.981 58.4976 185.208 57.3515 184.089 56.4987C182.969 55.6458 181.37 55.2194 179.291 55.2194C177.266 55.2194 175.533 55.6458 174.094 56.4987C172.655 57.3515 171.562 58.4976 170.816 59.9368C170.123 61.3226 169.777 62.8951 169.777 64.6541V85.1227C169.777 86.5085 169.324 87.6812 168.417 88.6407C167.511 89.5468 166.365 89.9999 164.979 89.9999C163.593 89.9999 162.447 89.5468 161.541 88.6407C160.635 87.6812 160.182 86.5085 160.182 85.1227V64.6541C160.182 62.8951 159.969 61.3226 159.542 59.9368C159.116 58.4976 158.343 57.3515 157.224 56.4987C156.104 55.6458 154.505 55.2194 152.426 55.2194C150.401 55.2194 148.668 55.6458 147.229 56.4987C145.79 57.3515 144.697 58.4976 143.951 59.9368C143.258 61.3226 142.912 62.8951 142.912 64.6541V85.1227C142.912 86.5085 142.459 87.6812 141.553 88.6407C140.646 89.5468 139.5 89.9999 138.114 89.9999C136.729 89.9999 135.583 89.5468 134.676 88.6407C133.77 87.6812 133.317 86.5085 133.317 85.1227V52.1011C133.317 50.7152 133.77 49.5692 134.676 48.6631C135.583 47.7036 136.729 47.2239 138.114 47.2239C139.5 47.2239 140.646 47.7036 141.553 48.6631C142.459 49.5692 142.912 50.7152 142.912 52.1011V55.5392L141.712 55.2993C142.192 54.3932 142.858 53.4337 143.711 52.421C144.564 51.3549 145.604 50.3688 146.83 49.4626C148.056 48.5565 149.415 47.8369 150.907 47.3038C152.4 46.7175 154.025 46.4243 155.784 46.4243Z" fill="#116D5C"/>
<path d="M129.834 85.0519C129.834 86.4378 129.381 87.6105 128.475 88.57C127.569 89.4761 126.423 89.9292 125.037 89.9292C123.651 89.9292 122.505 89.4761 121.599 88.57C120.693 87.6105 120.24 86.4378 120.24 85.0519V52.0304C120.24 50.6445 120.693 49.4985 121.599 48.5924C122.505 47.6329 123.651 47.1532 125.037 47.1532C126.423 47.1532 127.569 47.6329 128.475 48.5924C129.381 49.4985 129.834 50.6445 129.834 52.0304V85.0519ZM124.957 41.9561C123.145 41.9561 121.866 41.6629 121.119 41.0766C120.373 40.4902 120 39.4508 120 37.9583V36.4392C120 34.8934 120.4 33.8539 121.199 33.3209C122.052 32.7346 123.331 32.4414 125.037 32.4414C126.903 32.4414 128.209 32.7346 128.955 33.3209C129.701 33.9073 130.074 34.9467 130.074 36.4392V37.9583C130.074 39.5041 129.675 40.5702 128.875 41.1565C128.075 41.6896 126.77 41.9561 124.957 41.9561Z" fill="#116D5C"/>
<path d="M1340 20H1420V60C1420 82.0914 1402.09 100 1380 100V100C1357.91 100 1340 82.0914 1340 60V20Z" fill="#00A086"/>
<path d="M1350 60C1350 43.4315 1363.43 30 1380 30C1396.57 30 1410 43.4315 1410 60C1410 76.5685 1396.57 90 1380 90C1363.43 90 1350 76.5685 1350 60Z" fill="#F1F7F0"/>
<g filter="url(#filter18_d_4519_331)">
<path d="M1372.21 62.0416C1372.21 59.2918 1372.21 57.9169 1373.06 57.0626C1373.92 56.2083 1375.29 56.2083 1378.04 56.2083H1380.96C1383.71 56.2083 1385.08 56.2083 1385.94 57.0626C1386.79 57.9169 1386.79 59.2918 1386.79 62.0416V64.9583C1386.79 67.7082 1386.79 69.0831 1385.94 69.9374C1385.08 70.7916 1383.71 70.7916 1380.96 70.7916H1378.04C1375.29 70.7916 1373.92 70.7916 1373.06 69.9374C1372.21 69.0831 1372.21 67.7082 1372.21 64.9583V62.0416Z" stroke="#116D5C" stroke-width="3"/>
<rect x="1376.58" y="60.5833" width="5.83333" height="5.83333" rx="1" fill="#116D5C"/>
<path d="M1376.58 56.2083V51.8333" stroke="#116D5C" stroke-width="3" stroke-linecap="round"/>
<path d="M1382.42 56.2083V51.8333" stroke="#116D5C" stroke-width="3" stroke-linecap="round"/>
<path d="M1386.79 60.5833L1391.17 60.5833" stroke="#116D5C" stroke-width="3" stroke-linecap="round"/>
<path d="M1386.79 66.4167L1391.17 66.4167" stroke="#116D5C" stroke-width="3" stroke-linecap="round"/>
<path d="M1376.58 75.1667V70.7917" stroke="#116D5C" stroke-width="3" stroke-linecap="round"/>
<path d="M1382.42 75.1667V70.7917" stroke="#116D5C" stroke-width="3" stroke-linecap="round"/>
<path d="M1367.83 60.5833L1372.21 60.5833" stroke="#116D5C" stroke-width="3" stroke-linecap="round"/>
<path d="M1367.83 66.4167L1372.21 66.4167" stroke="#116D5C" stroke-width="3" stroke-linecap="round"/>
</g>
<g filter="url(#filter19_d_4519_331)">
<path d="M1361 56.6364C1361 53.0481 1361 51.2539 1361.73 49.6768C1362.45 48.0997 1363.81 46.9321 1366.54 44.5968L1369.18 42.3315C1374.1 38.1105 1376.57 36 1379.5 36C1382.43 36 1384.9 38.1105 1389.82 42.3315L1392.46 44.5968C1395.19 46.9321 1396.55 48.0997 1397.27 49.6768C1398 51.2539 1398 53.0481 1398 56.6364V67.8432C1398 72.8266 1398 75.3183 1396.45 76.8665C1394.9 78.4146 1392.41 78.4146 1387.43 78.4146H1371.57C1366.59 78.4146 1364.1 78.4146 1362.55 76.8665C1361 75.3183 1361 72.8266 1361 67.8432V56.6364Z" stroke="#116D5C" stroke-width="5"/>
</g>
<path d="M1240 20H1320V60C1320 82.0914 1302.09 100 1280 100V100C1257.91 100 1240 82.0914 1240 60V20Z" fill="#00A086"/>
<path d="M1250 60C1250 43.4315 1263.43 30 1280 30C1296.57 30 1310 43.4315 1310 60C1310 76.5685 1296.57 90 1280 90C1263.43 90 1250 76.5685 1250 60Z" fill="#F1F7F0"/>
<g filter="url(#filter20_d_4519_331)">
<path d="M1282.5 46C1282.5 41.8579 1279.14 38.5 1275 38.5C1270.86 38.5 1267.5 41.8579 1267.5 46C1267.5 50.1421 1270.86 53.5 1275 53.5C1279.14 53.5 1282.5 50.1421 1282.5 46ZM1287.5 46C1287.5 52.9036 1281.9 58.5 1275 58.5C1268.1 58.5 1262.5 52.9036 1262.5 46C1262.5 39.0964 1268.1 33.5 1275 33.5C1281.9 33.5 1287.5 39.0964 1287.5 46Z" fill="#116D5C"/>
</g>
<g filter="url(#filter21_d_4519_331)">
<path d="M1275 63.5C1278.85 63.5 1282.6 64.7711 1285.65 67.1162C1288.71 69.4614 1290.91 72.7496 1291.9 76.4707C1292.26 77.8044 1291.47 79.1749 1290.14 79.5322C1288.8 79.8895 1287.43 79.0983 1287.07 77.7646C1286.36 75.1068 1284.79 72.7581 1282.61 71.083C1280.43 69.408 1277.75 68.5 1275 68.5C1272.25 68.5 1269.57 69.408 1267.39 71.083C1265.21 72.7581 1263.64 75.1068 1262.93 77.7646C1262.57 79.0983 1261.2 79.8895 1259.86 79.5322C1258.53 79.1749 1257.74 77.8044 1258.1 76.4707C1259.09 72.7496 1261.29 69.4614 1264.35 67.1162C1267.4 64.7711 1271.15 63.5 1275 63.5Z" fill="#116D5C"/>
</g>
<g filter="url(#filter22_d_4519_331)">
<path d="M1295.5 67L1295.5 52C1295.5 50.6193 1296.62 49.5 1298 49.5C1299.38 49.5 1300.5 50.6193 1300.5 52L1300.5 67C1300.5 68.3807 1299.38 69.5 1298 69.5C1296.62 69.5 1295.5 68.3807 1295.5 67Z" fill="#116D5C"/>
</g>
<path d="M1290.5 57L1305.5 57C1306.88 57 1308 58.1193 1308 59.5C1308 60.8807 1306.88 62 1305.5 62L1290.5 62C1289.12 62 1288 60.8807 1288 59.5C1288 58.1193 1289.12 57 1290.5 57Z" fill="#116D5C"/>
<path d="M433.53 20H513.53V60C513.53 82.0914 495.621 100 473.53 100V100C451.439 100 433.53 82.0914 433.53 60V20Z" fill="#00A086"/>
<path d="M444 60C444 43.4315 457.431 30 474 30C490.569 30 504 43.4315 504 60C504 76.5685 490.569 90 474 90C457.431 90 444 76.5685 444 60Z" fill="#F1F7F0"/>
<g filter="url(#filter23_d_4519_331)">
<circle cx="470.5" cy="53.5" r="17.5" stroke="#116D5C" stroke-width="5"/>
</g>
<g filter="url(#filter24_d_4519_331)">
<path d="M492.5 75.5L485 68" stroke="#116D5C" stroke-width="5" stroke-linecap="round"/>
</g>
</g>
<g clip-path="url(#clip2_4519_331)">
<path d="M1340 20H1420V60C1420 82.0914 1402.09 100 1380 100V100C1357.91 100 1340 82.0914 1340 60V20Z" fill="#00A086"/>
<path d="M1240 20H1320V60C1320 82.0914 1302.09 100 1280 100V100C1257.91 100 1240 82.0914 1240 60V20Z" fill="#00A086"/>
<path d="M433.53 20H513.53V60C513.53 82.0914 495.621 100 473.53 100V100C451.439 100 433.53 82.0914 433.53 60V20Z" fill="#00A086"/>
<g filter="url(#filter25_d_4519_331)">
<path d="M414.38 68.23C414.38 72.6013 413.374 76.4663 411.362 79.8248C409.404 83.1299 406.739 85.7154 403.367 87.5813C400.049 89.4471 396.323 90.38 392.19 90.38C388.057 90.38 384.304 89.4471 380.932 87.5813C377.614 85.7154 374.949 83.1299 372.937 79.8248C370.979 76.4663 370 72.6013 370 68.23C370 63.8586 370.979 60.0203 372.937 56.7152C374.949 53.3567 377.614 50.7445 380.932 48.8787C384.304 46.9596 388.057 46 392.19 46C396.323 46 400.049 46.9596 403.367 48.8787C406.739 50.7445 409.404 53.3567 411.362 56.7152C413.374 60.0203 414.38 63.8586 414.38 68.23ZM404.59 68.23C404.59 65.5112 404.019 63.1656 402.877 61.1932C401.789 59.1674 400.294 57.5948 398.39 56.4753C396.541 55.3558 394.474 54.796 392.19 54.796C389.906 54.796 387.812 55.3558 385.908 56.4753C384.059 57.5948 382.563 59.1674 381.421 61.1932C380.334 63.1656 379.79 65.5112 379.79 68.23C379.79 70.8954 380.334 73.2411 381.421 75.2668C382.563 77.2393 384.059 78.7852 385.908 79.9047C387.812 81.0242 389.906 81.584 392.19 81.584C394.474 81.584 396.541 81.0242 398.39 79.9047C400.294 78.7852 401.789 77.2393 402.877 75.2668C404.019 73.2411 404.59 70.8954 404.59 68.23Z" fill="#116D5C"/>
</g>
<g filter="url(#filter26_d_4519_331)">
<path d="M362.332 30.8971C363.718 30.8971 364.864 31.3502 365.771 32.2564C366.677 33.1626 367.13 34.3354 367.13 35.7747V85.1899C367.13 86.5759 366.677 87.7487 365.771 88.7082C364.864 89.6144 363.718 90.0675 362.332 90.0675C360.946 90.0675 359.8 89.6144 358.894 88.7082C357.988 87.7487 357.535 86.5759 357.535 85.1899V81.2719L359.294 81.9915C359.294 82.6845 358.921 83.5374 358.174 84.5503C357.428 85.5098 356.415 86.4693 355.136 87.4288C353.856 88.3883 352.337 89.2146 350.578 89.9076C348.872 90.5473 347.006 90.8671 344.981 90.8671C341.302 90.8671 337.971 89.9342 334.985 88.0685C332 86.1495 329.628 83.5374 327.869 80.2324C326.163 76.8741 325.31 73.036 325.31 68.7182C325.31 64.347 326.163 60.5089 327.869 57.2039C329.628 53.8456 331.974 51.2336 334.905 49.3679C337.837 47.4488 341.089 46.4893 344.661 46.4893C346.953 46.4893 349.059 46.8358 350.978 47.5288C352.897 48.2218 354.549 49.1013 355.935 50.1675C357.375 51.2336 358.468 52.3264 359.214 53.4458C360.013 54.5119 360.413 55.4182 360.413 56.1645L357.535 57.2039V35.7747C357.535 34.3887 357.988 33.2426 358.894 32.3364C359.8 31.3769 360.946 30.8971 362.332 30.8971ZM346.18 82.0715C348.526 82.0715 350.578 81.4851 352.337 80.3124C354.096 79.1396 355.456 77.5404 356.415 75.5148C357.428 73.4891 357.934 71.2236 357.934 68.7182C357.934 66.1595 357.428 63.8673 356.415 61.8416C355.456 59.816 354.096 58.2168 352.337 57.044C350.578 55.8713 348.526 55.2849 346.18 55.2849C343.888 55.2849 341.862 55.8713 340.103 57.044C338.344 58.2168 336.958 59.816 335.945 61.8416C334.985 63.8673 334.506 66.1595 334.506 68.7182C334.506 71.2236 334.985 73.4891 335.945 75.5148C336.958 77.5404 338.344 79.1396 340.103 80.3124C341.862 81.4851 343.888 82.0715 346.18 82.0715Z" fill="#116D5C"/>
</g>
<g filter="url(#filter27_d_4519_331)">
<path d="M307.107 46.8177C311.052 46.8177 314.037 47.644 316.063 49.2966C318.142 50.9492 319.554 53.1615 320.3 55.9336C321.1 58.6523 321.5 61.6909 321.5 65.0494V85.52C321.5 86.906 321.047 88.0788 320.14 89.0384C319.234 89.9446 318.088 90.3978 316.702 90.3978C315.316 90.3978 314.17 89.9446 313.264 89.0384C312.358 88.0788 311.905 86.906 311.905 85.52V65.0494C311.905 63.2902 311.665 61.7176 311.185 60.3315C310.759 58.8922 309.959 57.7461 308.787 56.8931C307.614 56.0402 305.935 55.6137 303.749 55.6137C301.617 55.6137 299.805 56.0402 298.312 56.8931C296.873 57.7461 295.754 58.8922 294.954 60.3315C294.208 61.7176 293.835 63.2902 293.835 65.0494V85.52C293.835 86.906 293.382 88.0788 292.475 89.0384C291.569 89.9446 290.423 90.3978 289.037 90.3978C287.651 90.3978 286.505 89.9446 285.599 89.0384C284.693 88.0788 284.24 86.906 284.24 85.52V52.4951C284.24 51.1091 284.693 49.963 285.599 49.0567C286.505 48.0972 287.651 47.6174 289.037 47.6174C290.423 47.6174 291.569 48.0972 292.475 49.0567C293.382 49.963 293.835 51.1091 293.835 52.4951V55.9336L292.635 55.6937C293.115 54.7874 293.808 53.8279 294.714 52.815C295.62 51.7488 296.686 50.7626 297.912 49.8564C299.138 48.9501 300.524 48.2304 302.07 47.6973C303.616 47.1109 305.295 46.8177 307.107 46.8177Z" fill="#116D5C"/>
</g>
<g filter="url(#filter28_d_4519_331)">
<path d="M261.999 91.1432C257.468 91.1432 253.523 90.2103 250.165 88.3444C246.86 86.4253 244.301 83.8398 242.489 80.5879C240.729 77.3361 239.85 73.6577 239.85 69.5529C239.85 64.7551 240.809 60.6769 242.728 57.3184C244.701 53.9066 247.26 51.2945 250.405 49.482C253.55 47.6694 256.882 46.7632 260.4 46.7632C263.118 46.7632 265.677 47.3229 268.076 48.4424C270.528 49.5619 272.687 51.1079 274.553 53.0803C276.419 54.9995 277.885 57.2385 278.951 59.7973C280.07 62.3562 280.63 65.0749 280.63 67.9536C280.577 69.2331 280.07 70.2726 279.111 71.0722C278.151 71.8719 277.032 72.2717 275.752 72.2717H245.207L242.808 64.2753H272.154L270.395 65.8746V63.7155C270.288 62.1696 269.729 60.7835 268.716 59.5574C267.756 58.3313 266.53 57.3717 265.038 56.6787C263.598 55.9324 262.052 55.5592 260.4 55.5592C258.801 55.5592 257.308 55.7725 255.922 56.1989C254.536 56.6254 253.337 57.3451 252.324 58.358C251.311 59.3708 250.511 60.7302 249.925 62.4361C249.339 64.142 249.045 66.301 249.045 68.9132C249.045 71.7919 249.632 74.2441 250.804 76.2699C252.031 78.2423 253.576 79.7616 255.442 80.8278C257.361 81.8407 259.387 82.3471 261.519 82.3471C263.492 82.3471 265.064 82.1872 266.237 81.8674C267.41 81.5475 268.343 81.1743 269.036 80.7479C269.782 80.2681 270.448 79.8683 271.035 79.5484C271.994 79.0686 272.9 78.8287 273.753 78.8287C274.926 78.8287 275.886 79.2286 276.632 80.0282C277.431 80.8278 277.831 81.7607 277.831 82.8269C277.831 84.2663 277.085 85.5724 275.592 86.7452C274.206 87.918 272.261 88.9575 269.755 89.8638C267.25 90.7167 264.664 91.1432 261.999 91.1432Z" fill="#116D5C"/>
</g>
<g filter="url(#filter29_d_4519_331)">
<path d="M232.752 47C234.138 47 235.284 47.4798 236.191 48.4393C237.097 49.3456 237.55 50.4917 237.55 51.8778V72.1884C237.55 77.8392 235.977 82.3171 232.832 85.6223C229.687 88.9274 225.157 90.58 219.24 90.58C213.323 90.58 208.792 88.9274 205.647 85.6223C202.556 82.3171 201.01 77.8392 201.01 72.1884V51.8778C201.01 50.4917 201.463 49.3456 202.369 48.4393C203.275 47.4798 204.421 47 205.807 47C207.193 47 208.339 47.4798 209.245 48.4393C210.151 49.3456 210.605 50.4917 210.605 51.8778V72.1884C210.605 75.4403 211.324 77.8658 212.763 79.4651C214.203 81.0111 216.361 81.784 219.24 81.784C222.172 81.784 224.357 81.0111 225.796 79.4651C227.235 77.8658 227.955 75.4403 227.955 72.1884V51.8778C227.955 50.4917 228.408 49.3456 229.314 48.4393C230.22 47.4798 231.366 47 232.752 47Z" fill="#116D5C"/>
</g>
<g filter="url(#filter30_d_4519_331)">
<path d="M155.791 46.8177C160.054 46.8177 163.199 47.8573 165.225 49.9363C167.25 51.9621 168.582 54.6008 169.222 57.8527L167.863 57.133L168.502 55.8536C169.142 54.6275 170.128 53.3214 171.461 51.9354C172.793 50.4961 174.392 49.2966 176.258 48.3371C178.176 47.3242 180.308 46.8177 182.654 46.8177C186.491 46.8177 189.396 47.644 191.368 49.2966C193.393 50.9492 194.779 53.1615 195.525 55.9336C196.272 58.6523 196.645 61.6909 196.645 65.0494L196.645 85.52C196.645 86.906 196.192 88.0788 195.286 89.0384C194.379 89.9446 193.234 90.3978 191.848 90.3978C190.462 90.3978 189.316 89.9446 188.41 89.0384C187.504 88.0788 187.051 86.906 187.051 85.52L187.051 65.0494C187.051 63.2902 186.838 61.7176 186.411 60.3315C185.985 58.8922 185.212 57.7461 184.093 56.8931C182.973 56.0402 181.374 55.6137 179.296 55.6137C177.27 55.6137 175.538 56.0402 174.099 56.8931C172.66 57.7461 171.567 58.8922 170.821 60.3315C170.128 61.7176 169.782 63.2902 169.782 65.0494L169.782 85.52C169.782 86.906 169.329 88.0788 168.423 89.0384C167.516 89.9446 166.371 90.3978 164.985 90.3978C163.599 90.3978 162.453 89.9446 161.547 89.0384C160.641 88.0788 160.188 86.906 160.188 85.52L160.188 65.0494C160.188 63.2902 159.975 61.7176 159.548 60.3315C159.122 58.8922 158.349 57.7461 157.23 56.8931C156.11 56.0402 154.511 55.6137 152.433 55.6137C150.407 55.6137 148.675 56.0402 147.236 56.8931C145.797 57.7461 144.704 58.8922 143.958 60.3315C143.265 61.7176 142.919 63.2902 142.919 65.0494L142.919 85.52C142.919 86.906 142.466 88.0788 141.56 89.0384C140.653 89.9446 139.507 90.3978 138.122 90.3978C136.736 90.3978 135.59 89.9446 134.684 89.0384C133.778 88.0788 133.325 86.906 133.325 85.52L133.325 52.4951C133.325 51.1091 133.778 49.963 134.684 49.0567C135.59 48.0972 136.736 47.6174 138.122 47.6174C139.507 47.6174 140.653 48.0972 141.56 49.0567C142.466 49.963 142.919 51.1091 142.919 52.4951V55.9336L141.719 55.6937C142.199 54.7874 142.865 53.8279 143.718 52.815C144.571 51.7488 145.61 50.7626 146.836 49.8564C148.062 48.9501 149.421 48.2304 150.914 47.6973C152.406 47.1109 154.032 46.8177 155.791 46.8177Z" fill="#116D5C"/>
</g>
<g filter="url(#filter31_d_4519_331)">
<path d="M120.24 85.6125C120.24 86.9985 120.693 88.1712 121.598 89.1307C122.504 90.0369 123.65 90.49 125.035 90.49C126.42 90.49 127.566 90.0369 128.472 89.1307C129.377 88.1712 129.83 86.9985 129.83 85.6125L129.83 52.5898C129.83 51.2038 129.377 50.0578 128.472 49.1516C127.566 48.1921 126.42 47.7123 125.035 47.7123C123.65 47.7123 122.504 48.1921 121.598 49.1516C120.693 50.0578 120.24 51.2038 120.24 52.5898L120.24 85.6125ZM125.115 42.515C126.927 42.515 128.205 42.2219 128.951 41.6355C129.697 41.0491 130.07 40.0097 130.07 38.5171V36.9979C130.07 35.4521 129.67 34.4126 128.871 33.8795C128.019 33.2932 126.74 33 125.035 33C123.17 33 121.865 33.2932 121.119 33.8795C120.373 34.4659 120 35.5054 120 36.9979L120 38.5171C120 40.063 120.4 41.1291 121.199 41.7155C121.998 42.2485 123.303 42.515 125.115 42.515Z" fill="#116D5C"/>
</g>
</g>
<defs>
<filter id="filter0_d_4519_331" x="38" y="43" width="48" height="13" filterUnits="userSpaceOnUse" color-interpolation-filters="sRGB">
<feFlood flood-opacity="0" result="BackgroundImageFix"/>
<feColorMatrix in="SourceAlpha" type="matrix" values="0 0 0 0 0 0 0 0 0 0 0 0 0 0 0 0 0 0 127 0" result="hardAlpha"/>
<feOffset dx="2" dy="2"/>
<feGaussianBlur stdDeviation="2"/>
<feComposite in2="hardAlpha" operator="out"/>
<feColorMatrix type="matrix" values="0 0 0 0 0.0627451 0 0 0 0 0.113725 0 0 0 0 0.105882 0 0 0 0.5 0"/>
<feBlend mode="normal" in2="BackgroundImageFix" result="effect1_dropShadow_4519_331"/>
<feBlend mode="normal" in="SourceGraphic" in2="effect1_dropShadow_4519_331" result="shape"/>
</filter>
<filter id="filter1_d_4519_331" x="38" y="55.5" width="48" height="13" filterUnits="userSpaceOnUse" color-interpolation-filters="sRGB">
<feFlood flood-opacity="0" result="BackgroundImageFix"/>
<feColorMatrix in="SourceAlpha" type="matrix" values="0 0 0 0 0 0 0 0 0 0 0 0 0 0 0 0 0 0 127 0" result="hardAlpha"/>
<feOffset dx="2" dy="2"/>
<feGaussianBlur stdDeviation="2"/>
<feComposite in2="hardAlpha" operator="out"/>
<feColorMatrix type="matrix" values="0 0 0 0 0.0627451 0 0 0 0 0.113725 0 0 0 0 0.105882 0 0 0 0.5 0"/>
<feBlend mode="normal" in2="BackgroundImageFix" result="effect1_dropShadow_4519_331"/>
<feBlend mode="normal" in="SourceGraphic" in2="effect1_dropShadow_4519_331" result="shape"/>
</filter>
<filter id="filter2_d_4519_331" x="38" y="68" width="48" height="13" filterUnits="userSpaceOnUse" color-interpolation-filters="sRGB">
<feFlood flood-opacity="0" result="BackgroundImageFix"/>
<feColorMatrix in="SourceAlpha" type="matrix" values="0 0 0 0 0 0 0 0 0 0 0 0 0 0 0 0 0 0 127 0" result="hardAlpha"/>
<feOffset dx="2" dy="2"/>
<feGaussianBlur stdDeviation="2"/>
<feComposite in2="hardAlpha" operator="out"/>
<feColorMatrix type="matrix" values="0 0 0 0 0.0627451 0 0 0 0 0.113725 0 0 0 0 0.105882 0 0 0 0.5 0"/>
<feBlend mode="normal" in2="BackgroundImageFix" result="effect1_dropShadow_4519_331"/>
<feBlend mode="normal" in="SourceGraphic" in2="effect1_dropShadow_4519_331" result="shape"/>
</filter>
<filter id="filter3_d_4519_331" x="37.5" y="262.5" width="27" height="25.0002" filterUnits="userSpaceOnUse" color-interpolation-filters="sRGB">
<feFlood flood-opacity="0" result="BackgroundImageFix"/>
<feColorMatrix in="SourceAlpha" type="matrix" values="0 0 0 0 0 0 0 0 0 0 0 0 0 0 0 0 0 0 127 0" result="hardAlpha"/>
<feOffset dx="2" dy="2"/>
<feGaussianBlur stdDeviation="2"/>
<feColorMatrix type="matrix" values="0 0 0 0 0.0627451 0 0 0 0 0.113725 0 0 0 0 0.105882 0 0 0 0.5 0"/>
<feBlend mode="normal" in2="BackgroundImageFix" result="effect1_dropShadow_4519_331"/>
<feBlend mode="normal" in="SourceGraphic" in2="effect1_dropShadow_4519_331" result="shape"/>
</filter>
<filter id="filter4_d_4519_331" x="59.5" y="258.5" width="27" height="29.0002" filterUnits="userSpaceOnUse" color-interpolation-filters="sRGB">
<feFlood flood-opacity="0" result="BackgroundImageFix"/>
<feColorMatrix in="SourceAlpha" type="matrix" values="0 0 0 0 0 0 0 0 0 0 0 0 0 0 0 0 0 0 127 0" result="hardAlpha"/>
<feOffset dx="2" dy="2"/>
<feGaussianBlur stdDeviation="2"/>
<feColorMatrix type="matrix" values="0 0 0 0 0.0627451 0 0 0 0 0.113725 0 0 0 0 0.105882 0 0 0 0.5 0"/>
<feBlend mode="normal" in2="BackgroundImageFix" result="effect1_dropShadow_4519_331"/>
<feBlend mode="normal" in="SourceGraphic" in2="effect1_dropShadow_4519_331" result="shape"/>
</filter>
<filter id="filter5_d_4519_331" x="59.5" y="237.5" width="27" height="25.0002" filterUnits="userSpaceOnUse" color-interpolation-filters="sRGB">
<feFlood flood-opacity="0" result="BackgroundImageFix"/>
<feColorMatrix in="SourceAlpha" type="matrix" values="0 0 0 0 0 0 0 0 0 0 0 0 0 0 0 0 0 0 127 0" result="hardAlpha"/>
<feOffset dx="2" dy="2"/>
<feGaussianBlur stdDeviation="2"/>
<feColorMatrix type="matrix" values="0 0 0 0 0.0627451 0 0 0 0 0.113725 0 0 0 0 0.105882 0 0 0 0.5 0"/>
<feBlend mode="normal" in2="BackgroundImageFix" result="effect1_dropShadow_4519_331"/>
<feBlend mode="normal" in="SourceGraphic" in2="effect1_dropShadow_4519_331" result="shape"/>
</filter>
<filter id="filter6_d_4519_331" x="37.5" y="236.5" width="27" height="29.0002" filterUnits="userSpaceOnUse" color-interpolation-filters="sRGB">
<feFlood flood-opacity="0" result="BackgroundImageFix"/>
<feColorMatrix in="SourceAlpha" type="matrix" values="0 0 0 0 0 0 0 0 0 0 0 0 0 0 0 0 0 0 127 0" result="hardAlpha"/>
<feOffset dx="2" dy="2"/>
<feGaussianBlur stdDeviation="2"/>
<feColorMatrix type="matrix" values="0 0 0 0 0.0627451 0 0 0 0 0.113725 0 0 0 0 0.105882 0 0 0 0.5 0"/>
<feBlend mode="normal" in2="BackgroundImageFix" result="effect1_dropShadow_4519_331"/>
<feBlend mode="normal" in="SourceGraphic" in2="effect1_dropShadow_4519_331" result="shape"/>
</filter>
<filter id="filter7_d_4519_331" x="41" y="363" width="41.9783" height="24.118" filterUnits="userSpaceOnUse" color-interpolation-filters="sRGB">
<feFlood flood-opacity="0" result="BackgroundImageFix"/>
<feColorMatrix in="SourceAlpha" type="matrix" values="0 0 0 0 0 0 0 0 0 0 0 0 0 0 0 0 0 0 127 0" result="hardAlpha"/>
<feOffset dx="2" dy="2"/>
<feGaussianBlur stdDeviation="2"/>
<feComposite in2="hardAlpha" operator="out"/>
<feColorMatrix type="matrix" values="0 0 0 0 0.0627451 0 0 0 0 0.113725 0 0 0 0 0.105882 0 0 0 0.5 0"/>
<feBlend mode="normal" in2="BackgroundImageFix" result="effect1_dropShadow_4519_331"/>
<feBlend mode="normal" in="SourceGraphic" in2="effect1_dropShadow_4519_331" result="shape"/>
</filter>
<filter id="filter8_d_4519_331" x="45" y="332" width="33" height="33" filterUnits="userSpaceOnUse" color-interpolation-filters="sRGB">
<feFlood flood-opacity="0" result="BackgroundImageFix"/>
<feColorMatrix in="SourceAlpha" type="matrix" values="0 0 0 0 0 0 0 0 0 0 0 0 0 0 0 0 0 0 127 0" result="hardAlpha"/>
<feOffset dx="2" dy="2"/>
<feGaussianBlur stdDeviation="2"/>
<feComposite in2="hardAlpha" operator="out"/>
<feColorMatrix type="matrix" values="0 0 0 0 0.0627451 0 0 0 0 0.113725 0 0 0 0 0.105882 0 0 0 0.5 0"/>
<feBlend mode="normal" in2="BackgroundImageFix" result="effect1_dropShadow_4519_331"/>
<feBlend mode="normal" in="SourceGraphic" in2="effect1_dropShadow_4519_331" result="shape"/>
</filter>
<filter id="filter9_d_4519_331" x="36.1091" y="434.813" width="38.3892" height="35.7162" filterUnits="userSpaceOnUse" color-interpolation-filters="sRGB">
<feFlood flood-opacity="0" result="BackgroundImageFix"/>
<feColorMatrix in="SourceAlpha" type="matrix" values="0 0 0 0 0 0 0 0 0 0 0 0 0 0 0 0 0 0 127 0" result="hardAlpha"/>
<feOffset dx="2" dy="2"/>
<feGaussianBlur stdDeviation="2"/>
<feComposite in2="hardAlpha" operator="out"/>
<feColorMatrix type="matrix" values="0 0 0 0 0.0627451 0 0 0 0 0.113725 0 0 0 0 0.105882 0 0 0 0.5 0"/>
<feBlend mode="normal" in2="BackgroundImageFix" result="effect1_dropShadow_4519_331"/>
<feBlend mode="normal" in="SourceGraphic" in2="effect1_dropShadow_4519_331" result="shape"/>
</filter>
<filter id="filter10_d_4519_331" x="60.7969" y="458.132" width="29.009" height="29.0089" filterUnits="userSpaceOnUse" color-interpolation-filters="sRGB">
<feFlood flood-opacity="0" result="BackgroundImageFix"/>
<feColorMatrix in="SourceAlpha" type="matrix" values="0 0 0 0 0 0 0 0 0 0 0 0 0 0 0 0 0 0 127 0" result="hardAlpha"/>
<feOffset dx="2" dy="2"/>
<feGaussianBlur stdDeviation="2"/>
<feColorMatrix type="matrix" values="0 0 0 0 0.0627451 0 0 0 0 0.113725 0 0 0 0 0.105882 0 0 0 0.5 0"/>
<feBlend mode="normal" in2="BackgroundImageFix" result="effect1_dropShadow_4519_331"/>
<feBlend mode="normal" in="SourceGraphic" in2="effect1_dropShadow_4519_331" result="shape"/>
</filter>
<filter id="filter11_d_4519_331" x="49.1604" y="434.813" width="38.3313" height="35.6475" filterUnits="userSpaceOnUse" color-interpolation-filters="sRGB">
<feFlood flood-opacity="0" result="BackgroundImageFix"/>
<feColorMatrix in="SourceAlpha" type="matrix" values="0 0 0 0 0 0 0 0 0 0 0 0 0 0 0 0 0 0 127 0" result="hardAlpha"/>
<feOffset dx="2" dy="2"/>
<feGaussianBlur stdDeviation="2"/>
<feComposite in2="hardAlpha" operator="out"/>
<feColorMatrix type="matrix" values="0 0 0 0 0.0627451 0 0 0 0 0.113725 0 0 0 0 0.105882 0 0 0 0.5 0"/>
<feBlend mode="normal" in2="BackgroundImageFix" result="effect1_dropShadow_4519_331"/>
<feBlend mode="normal" in="SourceGraphic" in2="effect1_dropShadow_4519_331" result="shape"/>
</filter>
<filter id="filter12_d_4519_331" x="33.7942" y="458.133" width="29.009" height="29.0089" filterUnits="userSpaceOnUse" color-interpolation-filters="sRGB">
<feFlood flood-opacity="0" result="BackgroundImageFix"/>
<feColorMatrix in="SourceAlpha" type="matrix" values="0 0 0 0 0 0 0 0 0 0 0 0 0 0 0 0 0 0 127 0" result="hardAlpha"/>
<feOffset dx="2" dy="2"/>
<feGaussianBlur stdDeviation="2"/>
<feColorMatrix type="matrix" values="0 0 0 0 0.0627451 0 0 0 0 0.113725 0 0 0 0 0.105882 0 0 0 0.5 0"/>
<feBlend mode="normal" in2="BackgroundImageFix" result="effect1_dropShadow_4519_331"/>
<feBlend mode="normal" in="SourceGraphic" in2="effect1_dropShadow_4519_331" result="shape"/>
</filter>
<filter id="filter13_d_4519_331" x="48" y="548" width="28" height="28" filterUnits="userSpaceOnUse" color-interpolation-filters="sRGB">
<feFlood flood-opacity="0" result="BackgroundImageFix"/>
<feColorMatrix in="SourceAlpha" type="matrix" values="0 0 0 0 0 0 0 0 0 0 0 0 0 0 0 0 0 0 127 0" result="hardAlpha"/>
<feOffset dx="2" dy="2"/>
<feGaussianBlur stdDeviation="2"/>
<feComposite in2="hardAlpha" operator="out"/>
<feColorMatrix type="matrix" values="0 0 0 0 0.0627451 0 0 0 0 0.113725 0 0 0 0 0.105882 0 0 0 0.5 0"/>
<feBlend mode="normal" in2="BackgroundImageFix" result="effect1_dropShadow_4519_331"/>
<feBlend mode="normal" in="SourceGraphic" in2="effect1_dropShadow_4519_331" result="shape"/>
</filter>
<filter id="filter14_d_4519_331" x="33.2188" y="540.5" width="57.5625" height="43" filterUnits="userSpaceOnUse" color-interpolation-filters="sRGB">
<feFlood flood-opacity="0" result="BackgroundImageFix"/>
<feColorMatrix in="SourceAlpha" type="matrix" values="0 0 0 0 0 0 0 0 0 0 0 0 0 0 0 0 0 0 127 0" result="hardAlpha"/>
<feOffset dx="2" dy="2"/>
<feGaussianBlur stdDeviation="2"/>
<feColorMatrix type="matrix" values="0 0 0 0 0.0627451 0 0 0 0 0.113725 0 0 0 0 0.105882 0 0 0 0.5 0"/>
<feBlend mode="normal" in2="BackgroundImageFix" result="effect1_dropShadow_4519_331"/>
<feBlend mode="normal" in="SourceGraphic" in2="effect1_dropShadow_4519_331" result="shape"/>
</filter>
<filter id="filter15_d_4519_331" x="30.5" y="630.5" width="63" height="63.0002" filterUnits="userSpaceOnUse" color-interpolation-filters="sRGB">
<feFlood flood-opacity="0" result="BackgroundImageFix"/>
<feColorMatrix in="SourceAlpha" type="matrix" values="0 0 0 0 0 0 0 0 0 0 0 0 0 0 0 0 0 0 127 0" result="hardAlpha"/>
<feOffset dx="2" dy="2"/>
<feGaussianBlur stdDeviation="2"/>
<feComposite in2="hardAlpha" operator="out"/>
<feColorMatrix type="matrix" values="0 0 0 0 0.0627451 0 0 0 0 0.113725 0 0 0 0 0.105882 0 0 0 0.5 0"/>
<feBlend mode="normal" in2="BackgroundImageFix" result="effect1_dropShadow_4519_331"/>
<feBlend mode="normal" in="SourceGraphic" in2="effect1_dropShadow_4519_331" result="shape"/>
</filter>
<filter id="filter16_d_4519_331" x="37.8223" y="810.5" width="55.6777" height="63" filterUnits="userSpaceOnUse" color-interpolation-filters="sRGB">
<feFlood flood-opacity="0" result="BackgroundImageFix"/>
<feColorMatrix in="SourceAlpha" type="matrix" values="0 0 0 0 0 0 0 0 0 0 0 0 0 0 0 0 0 0 127 0" result="hardAlpha"/>
<feOffset dx="2" dy="2"/>
<feGaussianBlur stdDeviation="2"/>
<feComposite in2="hardAlpha" operator="out"/>
<feColorMatrix type="matrix" values="0 0 0 0 0.0627451 0 0 0 0 0.113725 0 0 0 0 0.105882 0 0 0 0.5 0"/>
<feBlend mode="normal" in2="BackgroundImageFix" result="effect1_dropShadow_4519_331"/>
<feBlend mode="normal" in="SourceGraphic" in2="effect1_dropShadow_4519_331" result="shape"/>
</filter>
<filter id="filter17_d_4519_331" x="33" y="823" width="43.7017" height="38.0002" filterUnits="userSpaceOnUse" color-interpolation-filters="sRGB">
<feFlood flood-opacity="0" result="BackgroundImageFix"/>
<feColorMatrix in="SourceAlpha" type="matrix" values="0 0 0 0 0 0 0 0 0 0 0 0 0 0 0 0 0 0 127 0" result="hardAlpha"/>
<feOffset dx="2" dy="2"/>
<feGaussianBlur stdDeviation="2"/>
<feComposite in2="hardAlpha" operator="out"/>
<feColorMatrix type="matrix" values="0 0 0 0 0.0627451 0 0 0 0 0.113725 0 0 0 0 0.105882 0 0 0 0.5 0"/>
<feBlend mode="normal" in2="BackgroundImageFix" result="effect1_dropShadow_4519_331"/>
<feBlend mode="normal" in="SourceGraphic" in2="effect1_dropShadow_4519_331" result="shape"/>
</filter>
<filter id="filter18_d_4519_331" x="1360" y="44" width="43" height="43" filterUnits="userSpaceOnUse" color-interpolation-filters="sRGB">
<feFlood flood-opacity="0" result="BackgroundImageFix"/>
<feColorMatrix in="SourceAlpha" type="matrix" values="0 0 0 0 0 0 0 0 0 0 0 0 0 0 0 0 0 0 127 0" result="hardAlpha"/>
<feOffset dx="2" dy="2"/>
<feGaussianBlur stdDeviation="2"/>
<feColorMatrix type="matrix" values="0 0 0 0 0.0627451 0 0 0 0 0.113725 0 0 0 0 0.105882 0 0 0 0.5 0"/>
<feBlend mode="normal" in2="BackgroundImageFix" result="effect1_dropShadow_4519_331"/>
<feBlend mode="normal" in="SourceGraphic" in2="effect1_dropShadow_4519_331" result="shape"/>
</filter>
<filter id="filter19_d_4519_331" x="1356.5" y="31.5" width="50.001" height="55.4146" filterUnits="userSpaceOnUse" color-interpolation-filters="sRGB">
<feFlood flood-opacity="0" result="BackgroundImageFix"/>
<feColorMatrix in="SourceAlpha" type="matrix" values="0 0 0 0 0 0 0 0 0 0 0 0 0 0 0 0 0 0 127 0" result="hardAlpha"/>
<feOffset dx="2" dy="2"/>
<feGaussianBlur stdDeviation="2"/>
<feColorMatrix type="matrix" values="0 0 0 0 0.0627451 0 0 0 0 0.113725 0 0 0 0 0.105882 0 0 0 0.5 0"/>
<feBlend mode="normal" in2="BackgroundImageFix" result="effect1_dropShadow_4519_331"/>
<feBlend mode="normal" in="SourceGraphic" in2="effect1_dropShadow_4519_331" result="shape"/>
</filter>
<filter id="filter20_d_4519_331" x="1260.5" y="31.5" width="33" height="33" filterUnits="userSpaceOnUse" color-interpolation-filters="sRGB">
<feFlood flood-opacity="0" result="BackgroundImageFix"/>
<feColorMatrix in="SourceAlpha" type="matrix" values="0 0 0 0 0 0 0 0 0 0 0 0 0 0 0 0 0 0 127 0" result="hardAlpha"/>
<feOffset dx="2" dy="2"/>
<feGaussianBlur stdDeviation="2"/>
<feComposite in2="hardAlpha" operator="out"/>
<feColorMatrix type="matrix" values="0 0 0 0 0.0627451 0 0 0 0 0.113725 0 0 0 0 0.105882 0 0 0 0.5 0"/>
<feBlend mode="normal" in2="BackgroundImageFix" result="effect1_dropShadow_4519_331"/>
<feBlend mode="normal" in="SourceGraphic" in2="effect1_dropShadow_4519_331" result="shape"/>
</filter>
<filter id="filter21_d_4519_331" x="1256.01" y="61.5" width="41.9785" height="24.118" filterUnits="userSpaceOnUse" color-interpolation-filters="sRGB">
<feFlood flood-opacity="0" result="BackgroundImageFix"/>
<feColorMatrix in="SourceAlpha" type="matrix" values="0 0 0 0 0 0 0 0 0 0 0 0 0 0 0 0 0 0 127 0" result="hardAlpha"/>
<feOffset dx="2" dy="2"/>
<feGaussianBlur stdDeviation="2"/>
<feComposite in2="hardAlpha" operator="out"/>
<feColorMatrix type="matrix" values="0 0 0 0 0.0627451 0 0 0 0 0.113725 0 0 0 0 0.105882 0 0 0 0.5 0"/>
<feBlend mode="normal" in2="BackgroundImageFix" result="effect1_dropShadow_4519_331"/>
<feBlend mode="normal" in="SourceGraphic" in2="effect1_dropShadow_4519_331" result="shape"/>
</filter>
<filter id="filter22_d_4519_331" x="1291.5" y="49.5" width="13" height="28" filterUnits="userSpaceOnUse" color-interpolation-filters="sRGB">
<feFlood flood-opacity="0" result="BackgroundImageFix"/>
<feColorMatrix in="SourceAlpha" type="matrix" values="0 0 0 0 0 0 0 0 0 0 0 0 0 0 0 0 0 0 127 0" result="hardAlpha"/>
<feOffset dy="4"/>
<feGaussianBlur stdDeviation="2"/>
<feComposite in2="hardAlpha" operator="out"/>
<feColorMatrix type="matrix" values="0 0 0 0 0.0627451 0 0 0 0 0.113725 0 0 0 0 0.105882 0 0 0 0.5 0"/>
<feBlend mode="normal" in2="BackgroundImageFix" result="effect1_dropShadow_4519_331"/>
<feBlend mode="normal" in="SourceGraphic" in2="effect1_dropShadow_4519_331" result="shape"/>
</filter>
<filter id="filter23_d_4519_331" x="448.5" y="31.5" width="48" height="48" filterUnits="userSpaceOnUse" color-interpolation-filters="sRGB">
<feFlood flood-opacity="0" result="BackgroundImageFix"/>
<feColorMatrix in="SourceAlpha" type="matrix" values="0 0 0 0 0 0 0 0 0 0 0 0 0 0 0 0 0 0 127 0" result="hardAlpha"/>
<feOffset dx="2" dy="2"/>
<feGaussianBlur stdDeviation="2"/>
<feColorMatrix type="matrix" values="0 0 0 0 0.0627451 0 0 0 0 0.113725 0 0 0 0 0.105882 0 0 0 0.5 0"/>
<feBlend mode="normal" in2="BackgroundImageFix" result="effect1_dropShadow_4519_331"/>
<feBlend mode="normal" in="SourceGraphic" in2="effect1_dropShadow_4519_331" result="shape"/>
</filter>
<filter id="filter24_d_4519_331" x="480.5" y="63.5" width="20.5" height="20.5" filterUnits="userSpaceOnUse" color-interpolation-filters="sRGB">
<feFlood flood-opacity="0" result="BackgroundImageFix"/>
<feColorMatrix in="SourceAlpha" type="matrix" values="0 0 0 0 0 0 0 0 0 0 0 0 0 0 0 0 0 0 127 0" result="hardAlpha"/>
<feOffset dx="2" dy="2"/>
<feGaussianBlur stdDeviation="2"/>
<feComposite in2="hardAlpha" operator="out"/>
<feColorMatrix type="matrix" values="0 0 0 0 0.0627451 0 0 0 0 0.113725 0 0 0 0 0.105882 0 0 0 0.5 0"/>
<feBlend mode="normal" in2="BackgroundImageFix" result="effect1_dropShadow_4519_331"/>
<feBlend mode="normal" in="SourceGraphic" in2="effect1_dropShadow_4519_331" result="shape"/>
</filter>
<filter id="filter25_d_4519_331" x="366" y="46" width="52.3799" height="53.38" filterUnits="userSpaceOnUse" color-interpolation-filters="sRGB">
<feFlood flood-opacity="0" result="BackgroundImageFix"/>
<feColorMatrix in="SourceAlpha" type="matrix" values="0 0 0 0 0 0 0 0 0 0 0 0 0 0 0 0 0 0 127 0" result="hardAlpha"/>
<feOffset dy="5"/>
<feGaussianBlur stdDeviation="2"/>
<feComposite in2="hardAlpha" operator="out"/>
<feColorMatrix type="matrix" values="0 0 0 0 0.0666667 0 0 0 0 0.427451 0 0 0 0 0.360784 0 0 0 1 0"/>
<feBlend mode="normal" in2="BackgroundImageFix" result="effect1_dropShadow_4519_331"/>
<feBlend mode="normal" in="SourceGraphic" in2="effect1_dropShadow_4519_331" result="shape"/>
</filter>
<filter id="filter26_d_4519_331" x="321.31" y="30.8971" width="49.8201" height="68.97" filterUnits="userSpaceOnUse" color-interpolation-filters="sRGB">
<feFlood flood-opacity="0" result="BackgroundImageFix"/>
<feColorMatrix in="SourceAlpha" type="matrix" values="0 0 0 0 0 0 0 0 0 0 0 0 0 0 0 0 0 0 127 0" result="hardAlpha"/>
<feOffset dy="5"/>
<feGaussianBlur stdDeviation="2"/>
<feComposite in2="hardAlpha" operator="out"/>
<feColorMatrix type="matrix" values="0 0 0 0 0.0666667 0 0 0 0 0.427451 0 0 0 0 0.360784 0 0 0 1 0"/>
<feBlend mode="normal" in2="BackgroundImageFix" result="effect1_dropShadow_4519_331"/>
<feBlend mode="normal" in="SourceGraphic" in2="effect1_dropShadow_4519_331" result="shape"/>
</filter>
<filter id="filter27_d_4519_331" x="280.24" y="46.8177" width="45.26" height="52.58" filterUnits="userSpaceOnUse" color-interpolation-filters="sRGB">
<feFlood flood-opacity="0" result="BackgroundImageFix"/>
<feColorMatrix in="SourceAlpha" type="matrix" values="0 0 0 0 0 0 0 0 0 0 0 0 0 0 0 0 0 0 127 0" result="hardAlpha"/>
<feOffset dy="5"/>
<feGaussianBlur stdDeviation="2"/>
<feComposite in2="hardAlpha" operator="out"/>
<feColorMatrix type="matrix" values="0 0 0 0 0.0666667 0 0 0 0 0.427451 0 0 0 0 0.360784 0 0 0 1 0"/>
<feBlend mode="normal" in2="BackgroundImageFix" result="effect1_dropShadow_4519_331"/>
<feBlend mode="normal" in="SourceGraphic" in2="effect1_dropShadow_4519_331" result="shape"/>
</filter>
<filter id="filter28_d_4519_331" x="235.85" y="46.7632" width="48.78" height="53.38" filterUnits="userSpaceOnUse" color-interpolation-filters="sRGB">
<feFlood flood-opacity="0" result="BackgroundImageFix"/>
<feColorMatrix in="SourceAlpha" type="matrix" values="0 0 0 0 0 0 0 0 0 0 0 0 0 0 0 0 0 0 127 0" result="hardAlpha"/>
<feOffset dy="5"/>
<feGaussianBlur stdDeviation="2"/>
<feComposite in2="hardAlpha" operator="out"/>
<feColorMatrix type="matrix" values="0 0 0 0 0.0666667 0 0 0 0 0.427451 0 0 0 0 0.360784 0 0 0 1 0"/>
<feBlend mode="normal" in2="BackgroundImageFix" result="effect1_dropShadow_4519_331"/>
<feBlend mode="normal" in="SourceGraphic" in2="effect1_dropShadow_4519_331" result="shape"/>
</filter>
<filter id="filter29_d_4519_331" x="197.01" y="47" width="44.54" height="52.58" filterUnits="userSpaceOnUse" color-interpolation-filters="sRGB">
<feFlood flood-opacity="0" result="BackgroundImageFix"/>
<feColorMatrix in="SourceAlpha" type="matrix" values="0 0 0 0 0 0 0 0 0 0 0 0 0 0 0 0 0 0 127 0" result="hardAlpha"/>
<feOffset dy="5"/>
<feGaussianBlur stdDeviation="2"/>
<feComposite in2="hardAlpha" operator="out"/>
<feColorMatrix type="matrix" values="0 0 0 0 0.0666667 0 0 0 0 0.427451 0 0 0 0 0.360784 0 0 0 1 0"/>
<feBlend mode="normal" in2="BackgroundImageFix" result="effect1_dropShadow_4519_331"/>
<feBlend mode="normal" in="SourceGraphic" in2="effect1_dropShadow_4519_331" result="shape"/>
</filter>
<filter id="filter30_d_4519_331" x="129.325" y="46.8177" width="71.3201" height="52.58" filterUnits="userSpaceOnUse" color-interpolation-filters="sRGB">
<feFlood flood-opacity="0" result="BackgroundImageFix"/>
<feColorMatrix in="SourceAlpha" type="matrix" values="0 0 0 0 0 0 0 0 0 0 0 0 0 0 0 0 0 0 127 0" result="hardAlpha"/>
<feOffset dy="5"/>
<feGaussianBlur stdDeviation="2"/>
<feComposite in2="hardAlpha" operator="out"/>
<feColorMatrix type="matrix" values="0 0 0 0 0.0666667 0 0 0 0 0.427451 0 0 0 0 0.360784 0 0 0 1 0"/>
<feBlend mode="normal" in2="BackgroundImageFix" result="effect1_dropShadow_4519_331"/>
<feBlend mode="normal" in="SourceGraphic" in2="effect1_dropShadow_4519_331" result="shape"/>
</filter>
<filter id="filter31_d_4519_331" x="116" y="33" width="18.0701" height="66.49" filterUnits="userSpaceOnUse" color-interpolation-filters="sRGB">
<feFlood flood-opacity="0" result="BackgroundImageFix"/>
<feColorMatrix in="SourceAlpha" type="matrix" values="0 0 0 0 0 0 0 0 0 0 0 0 0 0 0 0 0 0 127 0" result="hardAlpha"/>
<feOffset dy="5"/>
<feGaussianBlur stdDeviation="2"/>
<feComposite in2="hardAlpha" operator="out"/>
<feColorMatrix type="matrix" values="0 0 0 0 0.0666667 0 0 0 0 0.427451 0 0 0 0 0.360784 0 0 0 1 0"/>
<feBlend mode="normal" in2="BackgroundImageFix" result="effect1_dropShadow_4519_331"/>
<feBlend mode="normal" in="SourceGraphic" in2="effect1_dropShadow_4519_331" result="shape"/>
</filter>
<clipPath id="clip0_4519_331">
<rect width="120" height="900" fill="white"/>
</clipPath>
<clipPath id="clip1_4519_331">
<rect width="1320" height="70" fill="white" transform="translate(120 20)"/>
</clipPath>
<clipPath id="clip2_4519_331">
<rect width="1320" height="10" fill="white" transform="translate(120 90)"/>
</clipPath>
</defs>
</svg>
