<svg viewBox="0 27 280 58" fill="none" xmlns="http://www.w3.org/2000/svg">
<style>
  .rotating {
    transform-origin: 261px 62px;
    animation: rotate 4s linear infinite;
  }
  @keyframes rotate {
    from { transform: rotate(0deg); }
    to { transform: rotate(360deg); }
  }
</style>
<path d="M9.89502 75.852C9.89502 77.0307 9.50968 78.028 8.73902 78.844C7.96835 79.6147 6.99368 80 5.81502 80C4.63635 80 3.66168 79.6147 2.89102 78.844C2.12035 78.028 1.73502 77.0307 1.73502 75.852V47.768C1.73502 46.5893 2.12035 45.6147 2.89102 44.844C3.66168 44.028 4.63635 43.62 5.81502 43.62C6.99368 43.62 7.96835 44.028 8.73902 44.844C9.50968 45.6147 9.89502 46.5893 9.89502 47.768V75.852ZM5.74702 39.2C4.20568 39.2 3.11768 38.9507 2.48302 38.452C1.84835 37.9533 1.53102 37.0693 1.53102 35.8V34.508C1.53102 33.1933 1.87102 32.3093 2.55102 31.856C3.27635 31.3573 4.36435 31.108 5.81502 31.108C7.40168 31.108 8.51235 31.3573 9.14702 31.856C9.78168 32.3547 10.099 33.2387 10.099 34.508V35.8C10.099 37.1147 9.75902 38.0213 9.07902 38.52C8.39902 38.9733 7.28835 39.2 5.74702 39.2ZM37.3893 42.94C41.016 42.94 43.6907 43.824 45.4133 45.592C47.136 47.3147 48.2693 49.5587 48.8133 52.324L47.6573 51.712L48.2013 50.624C48.7453 49.5813 49.584 48.4707 50.7173 47.292C51.8507 46.068 53.2107 45.048 54.7973 44.232C56.4293 43.3707 58.2427 42.94 60.2373 42.94C63.5013 42.94 65.972 43.6427 67.6493 45.048C69.372 46.4533 70.5507 48.3347 71.1853 50.692C71.82 53.004 72.1373 55.588 72.1373 58.444V75.852C72.1373 77.0307 71.752 78.028 70.9813 78.844C70.2107 79.6147 69.236 80 68.0573 80C66.8787 80 65.904 79.6147 65.1333 78.844C64.3627 78.028 63.9773 77.0307 63.9773 75.852V58.444C63.9773 56.948 63.796 55.6107 63.4333 54.432C63.0707 53.208 62.4133 52.2333 61.4613 51.508C60.5093 50.7827 59.1493 50.42 57.3813 50.42C55.6587 50.42 54.1853 50.7827 52.9613 51.508C51.7373 52.2333 50.808 53.208 50.1733 54.432C49.584 55.6107 49.2893 56.948 49.2893 58.444V75.852C49.2893 77.0307 48.904 78.028 48.1333 78.844C47.3627 79.6147 46.388 80 45.2093 80C44.0307 80 43.056 79.6147 42.2853 78.844C41.5147 78.028 41.1293 77.0307 41.1293 75.852V58.444C41.1293 56.948 40.948 55.6107 40.5853 54.432C40.2227 53.208 39.5653 52.2333 38.6133 51.508C37.6613 50.7827 36.3013 50.42 34.5333 50.42C32.8107 50.42 31.3373 50.7827 30.1133 51.508C28.8893 52.2333 27.96 53.208 27.3253 54.432C26.736 55.6107 26.4413 56.948 26.4413 58.444V75.852C26.4413 77.0307 26.056 78.028 25.2853 78.844C24.5147 79.6147 23.54 80 22.3613 80C21.1827 80 20.208 79.6147 19.4373 78.844C18.6667 78.028 18.2813 77.0307 18.2813 75.852V47.768C18.2813 46.5893 18.6667 45.6147 19.4373 44.844C20.208 44.028 21.1827 43.62 22.3613 43.62C23.54 43.62 24.5147 44.028 25.2853 44.844C26.056 45.6147 26.4413 46.5893 26.4413 47.768V50.692L25.4213 50.488C25.8293 49.7173 26.396 48.9013 27.1213 48.04C27.8467 47.1333 28.7307 46.2947 29.7733 45.524C30.816 44.7533 31.972 44.1413 33.2413 43.688C34.5107 43.1893 35.8933 42.94 37.3893 42.94ZM107.965 43.62C109.143 43.62 110.118 44.028 110.889 44.844C111.659 45.6147 112.045 46.5893 112.045 47.768V65.04C112.045 69.8453 110.707 73.6533 108.033 76.464C105.358 79.2747 101.505 80.68 96.4728 80.68C91.4408 80.68 87.5875 79.2747 84.9128 76.464C82.2835 73.6533 80.9688 69.8453 80.9688 65.04V47.768C80.9688 46.5893 81.3542 45.6147 82.1248 44.844C82.8955 44.028 83.8702 43.62 85.0488 43.62C86.2275 43.62 87.2022 44.028 87.9728 44.844C88.7435 45.6147 89.1288 46.5893 89.1288 47.768V65.04C89.1288 67.8053 89.7408 69.868 90.9648 71.228C92.1888 72.5427 94.0248 73.2 96.4728 73.2C98.9662 73.2 100.825 72.5427 102.049 71.228C103.273 69.868 103.885 67.8053 103.885 65.04V47.768C103.885 46.5893 104.27 45.6147 105.041 44.844C105.811 44.028 106.786 43.62 107.965 43.62ZM138.015 80.68C134.162 80.68 130.807 79.8867 127.951 78.3C125.14 76.668 122.964 74.4693 121.423 71.704C119.927 68.9387 119.179 65.8107 119.179 62.32C119.179 58.24 119.995 54.772 121.627 51.916C123.304 49.0147 125.48 46.7933 128.155 45.252C130.83 43.7107 133.663 42.94 136.655 42.94C138.967 42.94 141.143 43.416 143.183 44.368C145.268 45.32 147.104 46.6347 148.691 48.312C150.278 49.944 151.524 51.848 152.431 54.024C153.383 56.2 153.859 58.512 153.859 60.96C153.814 62.048 153.383 62.932 152.567 63.612C151.751 64.292 150.799 64.632 149.711 64.632H123.735L121.695 57.832H146.651L145.155 59.192V57.356C145.064 56.0413 144.588 54.8627 143.727 53.82C142.911 52.7773 141.868 51.9613 140.599 51.372C139.375 50.7373 138.06 50.42 136.655 50.42C135.295 50.42 134.026 50.6013 132.847 50.964C131.668 51.3267 130.648 51.9387 129.787 52.8C128.926 53.6613 128.246 54.8173 127.747 56.268C127.248 57.7187 126.999 59.5547 126.999 61.776C126.999 64.224 127.498 66.3093 128.495 68.032C129.538 69.7093 130.852 71.0013 132.439 71.908C134.071 72.7693 135.794 73.2 137.607 73.2C139.284 73.2 140.622 73.064 141.619 72.792C142.616 72.52 143.41 72.2027 143.999 71.84C144.634 71.432 145.2 71.092 145.699 70.82C146.515 70.412 147.286 70.208 148.011 70.208C149.008 70.208 149.824 70.548 150.459 71.228C151.139 71.908 151.479 72.7013 151.479 73.608C151.479 74.832 150.844 75.9427 149.575 76.94C148.396 77.9373 146.742 78.8213 144.611 79.592C142.48 80.3173 140.282 80.68 138.015 80.68ZM180.436 42.94C183.791 42.94 186.33 43.6427 188.052 45.048C189.82 46.4533 191.022 48.3347 191.656 50.692C192.336 53.004 192.676 55.588 192.676 58.444V75.852C192.676 77.0307 192.291 78.028 191.52 78.844C190.75 79.6147 189.775 80 188.596 80C187.418 80 186.443 79.6147 185.672 78.844C184.902 78.028 184.516 77.0307 184.516 75.852V58.444C184.516 56.948 184.312 55.6107 183.904 54.432C183.542 53.208 182.862 52.2333 181.864 51.508C180.867 50.7827 179.439 50.42 177.58 50.42C175.767 50.42 174.226 50.7827 172.956 51.508C171.732 52.2333 170.78 53.208 170.1 54.432C169.466 55.6107 169.148 56.948 169.148 58.444V75.852C169.148 77.0307 168.763 78.028 167.992 78.844C167.222 79.6147 166.247 80 165.068 80C163.89 80 162.915 79.6147 162.144 78.844C161.374 78.028 160.988 77.0307 160.988 75.852V47.768C160.988 46.5893 161.374 45.6147 162.144 44.844C162.915 44.028 163.89 43.62 165.068 43.62C166.247 43.62 167.222 44.028 167.992 44.844C168.763 45.6147 169.148 46.5893 169.148 47.768V50.692L168.128 50.488C168.536 49.7173 169.126 48.9013 169.896 48.04C170.667 47.1333 171.574 46.2947 172.616 45.524C173.659 44.7533 174.838 44.1413 176.152 43.688C177.467 43.1893 178.895 42.94 180.436 42.94ZM231.28 29.68C232.459 29.68 233.434 30.0653 234.204 30.836C234.975 31.6067 235.36 32.604 235.36 33.828V75.852C235.36 77.0307 234.975 78.028 234.204 78.844C233.434 79.6147 232.459 80 231.28 80C230.102 80 229.127 79.6147 228.356 78.844C227.586 78.028 227.2 77.0307 227.2 75.852V72.52L228.696 73.132C228.696 73.7213 228.379 74.4467 227.744 75.308C227.11 76.124 226.248 76.94 225.16 77.756C224.072 78.572 222.78 79.2747 221.284 79.864C219.834 80.408 218.247 80.68 216.524 80.68C213.396 80.68 210.563 79.8867 208.024 78.3C205.486 76.668 203.468 74.4467 201.972 71.636C200.522 68.78 199.796 65.516 199.796 61.844C199.796 58.1267 200.522 54.8627 201.972 52.052C203.468 49.196 205.463 46.9747 207.956 45.388C210.45 43.756 213.215 42.94 216.252 42.94C218.202 42.94 219.992 43.2347 221.624 43.824C223.256 44.4133 224.662 45.1613 225.84 46.068C227.064 46.9747 227.994 47.904 228.628 48.856C229.308 49.7627 229.648 50.5333 229.648 51.168L227.2 52.052V33.828C227.2 32.6493 227.586 31.6747 228.356 30.904C229.127 30.088 230.102 29.68 231.28 29.68ZM217.544 73.2C219.539 73.2 221.284 72.7013 222.78 71.704C224.276 70.7067 225.432 69.3467 226.248 67.624C227.11 65.9013 227.54 63.9747 227.54 61.844C227.54 59.668 227.11 57.7187 226.248 55.996C225.432 54.2733 224.276 52.9133 222.78 51.916C221.284 50.9187 219.539 50.42 217.544 50.42C215.595 50.42 213.872 50.9187 212.376 51.916C210.88 52.9133 209.702 54.2733 208.84 55.996C208.024 57.7187 207.616 59.668 207.616 61.844C207.616 63.9747 208.024 65.9013 208.84 67.624C209.702 69.3467 210.88 70.7067 212.376 71.704C213.872 72.7013 215.595 73.2 217.544 73.2ZM279.487 61.844C279.487 65.5613 278.649 68.848 276.971 71.704C275.339 74.5147 273.118 76.7133 270.307 78.3C267.542 79.8867 264.437 80.68 260.991 80.68C257.546 80.68 254.418 79.8867 251.607 78.3C248.842 76.7133 246.621 74.5147 244.943 71.704C243.311 68.848 242.495 65.5613 242.495 61.844C242.495 58.1267 243.311 54.8627 244.943 52.052C246.621 49.196 248.842 46.9747 251.607 45.388C254.418 43.756 257.546 42.94 260.991 42.94C264.437 42.94 267.542 43.756 270.307 45.388C273.118 46.9747 275.339 49.196 276.971 52.052C278.649 54.8627 279.487 58.1267 279.487 61.844ZM271.327 61.844C271.327 59.532 270.851 57.5373 269.899 55.86C268.993 54.1373 267.746 52.8 266.159 51.848C264.618 50.896 262.895 50.42 260.991 50.42C259.087 50.42 257.342 50.896 255.755 51.848C254.214 52.8 252.967 54.1373 252.015 55.86C251.109 57.5373 250.655 59.532 250.655 61.844C250.655 64.1107 251.109 66.1053 252.015 67.828C252.967 69.5053 254.214 70.82 255.755 71.772C257.342 72.724 259.087 73.2 260.991 73.2C262.895 73.2 264.618 72.724 266.159 71.772C267.746 70.82 268.993 69.5053 269.899 67.828C270.851 66.1053 271.327 64.1107 271.327 61.844Z" fill="#116D5C"/>
<ellipse cx="261" cy="62" rx="11" ry="12" fill="#116D5C"/>
<path class="rotating" fill-rule="evenodd" clip-rule="evenodd" d="M252.593 56.6577C252.25 57.4036 252.25 58.2522 252.25 59.9494V65.2499C252.25 67.6069 252.25 68.7855 252.982 69.5177C253.675 70.21 254.766 70.2477 256.875 70.2498V64C256.875 62.7574 257.882 61.75 259.125 61.75H262.875C264.118 61.75 265.125 62.7574 265.125 64V70.2498C267.234 70.2477 268.325 70.21 269.018 69.5177C269.75 68.7855 269.75 67.6069 269.75 65.2499V59.9494C269.75 58.2522 269.75 57.4036 269.407 56.6577C269.064 55.9118 268.42 55.3595 267.131 54.255L265.881 53.1836C263.552 51.1872 262.387 50.189 261 50.189C259.613 50.189 258.448 51.1872 256.119 53.1836L254.869 54.255C253.58 55.3595 252.936 55.9118 252.593 56.6577ZM263.125 70.2499V64C263.125 63.8619 263.013 63.75 262.875 63.75H259.125C258.987 63.75 258.875 63.8619 258.875 64V70.2499H263.125Z" fill="#F1F7F0"/>
</svg>
